<svg width="871" height="622" viewBox="0 0 871 622" fill="none" xmlns="http://www.w3.org/2000/svg">
<g id="undraw_Data_re_80ws 1" clip-path="url(#clip0)">
<g id="blackboardVect">
<path id="Vector" d="M711.409 390.085H150.434C146.604 390.08 142.933 388.529 140.225 385.771C137.517 383.014 135.994 379.275 135.99 375.375V23.0852C135.993 20.228 137.109 17.4887 139.093 15.4683C141.076 13.4479 143.766 12.3114 146.571 12.3081H715.088C717.942 12.3114 720.678 13.4675 722.696 15.5229C724.714 17.5782 725.849 20.3649 725.853 23.2715V375.375C725.848 379.275 724.325 383.014 721.617 385.771C718.91 388.529 715.238 390.08 711.409 390.085V390.085Z" fill="#F2F2F2"/>
<path id="Vector_2" d="M690.945 369.253H168.131C160.467 369.253 154.232 363.306 154.232 355.997V49.2192C154.232 43.7986 158.852 39.3885 164.531 39.3885H694.374C700.147 39.3885 704.844 43.8713 704.844 49.3811V355.997C704.844 363.306 698.609 369.253 690.945 369.253Z" fill="white"/>
<path id="Vector_3" d="M725.651 22.2437H135.787V14.7546C135.793 10.8416 137.322 7.09058 140.04 4.32453C142.757 1.55847 146.441 0.00323279 150.283 0H711.155C714.997 0.00321395 718.681 1.55845 721.399 4.32451C724.117 7.09057 725.646 10.8416 725.651 14.7546V22.2437Z" fill="#CCCCCC"/>
<path id="Vector_4" d="M162.132 14.9628C164.203 14.9628 165.882 13.2531 165.882 11.1441C165.882 9.03501 164.203 7.32529 162.132 7.32529C160.061 7.32529 158.382 9.03501 158.382 11.1441C158.382 13.2531 160.061 14.9628 162.132 14.9628Z" fill="white"/>
<path id="Vector_5" d="M176.365 14.9628C178.435 14.9628 180.114 13.2531 180.114 11.1441C180.114 9.03501 178.435 7.32529 176.365 7.32529C174.294 7.32529 172.615 9.03501 172.615 11.1441C172.615 13.2531 174.294 14.9628 176.365 14.9628Z" fill="white"/>
<path id="Vector_6" d="M190.597 14.9628C192.668 14.9628 194.347 13.2531 194.347 11.1441C194.347 9.03501 192.668 7.32529 190.597 7.32529C188.526 7.32529 186.848 9.03501 186.848 11.1441C186.848 13.2531 188.526 14.9628 190.597 14.9628Z" fill="white"/>
</g>
<g id="blackboardGraph">
<path id="Vector_7" d="M633.399 317.801H228.241C224.179 317.796 220.285 316.151 217.414 313.226C214.542 310.301 212.926 306.336 212.922 302.199V103.252C212.925 100.159 214.133 97.1928 216.281 95.0052C218.429 92.8177 221.341 91.5872 224.378 91.5836H637.078C640.164 91.5872 643.123 92.8374 645.305 95.0598C647.487 97.2823 648.714 100.296 648.718 103.439V302.199C648.713 306.336 647.098 310.301 644.226 313.226C641.354 316.151 637.46 317.796 633.399 317.801V317.801ZM224.378 93.3667C221.805 93.3697 219.338 94.4121 217.518 96.2654C215.699 98.1187 214.675 100.631 214.672 103.252V302.199C214.676 305.863 216.107 309.375 218.651 311.966C221.195 314.557 224.643 316.014 228.241 316.018H633.399C636.996 316.014 640.445 314.557 642.989 311.966C645.532 309.375 646.963 305.863 646.967 302.199V103.439C646.964 100.768 645.921 98.2082 644.068 96.32C642.214 94.4318 639.7 93.3697 637.078 93.3667H224.378Z" fill="#CCCCCC"/>
<path id="Vector_8" d="M242.247 302.199H619.393C623.108 302.199 626.67 300.697 629.297 298.021C631.923 295.346 633.399 291.718 633.399 287.935V121.623C633.399 117.84 631.923 114.212 629.297 111.536C626.67 108.861 623.108 107.359 619.393 107.359H242.247C238.532 107.359 234.97 108.861 232.343 111.536C229.716 114.212 228.241 117.84 228.241 121.623V287.935C228.241 291.718 229.716 295.346 232.343 298.021C234.97 300.697 238.532 302.199 242.247 302.199Z" fill="#F2F2F2"/>
<path id="Vector_9" d="M285.07 155.745C289.421 155.745 292.948 152.153 292.948 147.721C292.948 143.29 289.421 139.698 285.07 139.698C280.718 139.698 277.191 143.29 277.191 147.721C277.191 152.153 280.718 155.745 285.07 155.745Z" fill="#CCCCCC"/>
<path id="Vector_10" d="M285.07 186.057C289.421 186.057 292.948 182.465 292.948 178.033C292.948 173.602 289.421 170.01 285.07 170.01C280.718 170.01 277.191 173.602 277.191 178.033C277.191 182.465 280.718 186.057 285.07 186.057Z" fill="#CCCCCC"/>
<path id="Vector_11" d="M285.07 216.369C289.421 216.369 292.948 212.776 292.948 208.345C292.948 203.914 289.421 200.321 285.07 200.321C280.718 200.321 277.191 203.914 277.191 208.345C277.191 212.776 280.718 216.369 285.07 216.369Z" fill="#CCCCCC"/>
<path id="Vector_12" d="M285.07 246.681C289.421 246.681 292.948 243.088 292.948 238.657C292.948 234.226 289.421 230.633 285.07 230.633C280.718 230.633 277.191 234.226 277.191 238.657C277.191 243.088 280.718 246.681 285.07 246.681Z" fill="#CCCCCC"/>
<path id="Vector_13" d="M583.573 148.613H324.462C324.229 148.613 324.007 148.519 323.843 148.352C323.678 148.185 323.586 147.958 323.586 147.721C323.586 147.485 323.678 147.258 323.843 147.091C324.007 146.924 324.229 146.83 324.462 146.83H583.573C583.805 146.83 584.028 146.924 584.192 147.091C584.356 147.258 584.448 147.485 584.448 147.721C584.448 147.958 584.356 148.185 584.192 148.352C584.028 148.519 583.805 148.613 583.573 148.613Z" fill="#CCCCCC"/>
<path id="Vector_14" d="M583.573 178.925H324.462C324.229 178.925 324.007 178.831 323.843 178.664C323.678 178.496 323.586 178.27 323.586 178.033C323.586 177.797 323.678 177.57 323.843 177.403C324.007 177.236 324.229 177.142 324.462 177.142H583.573C583.805 177.142 584.028 177.236 584.192 177.403C584.356 177.57 584.448 177.797 584.448 178.033C584.448 178.27 584.356 178.496 584.192 178.664C584.028 178.831 583.805 178.925 583.573 178.925Z" fill="#CCCCCC"/>
<path id="Vector_15" d="M583.573 209.237H324.462C324.229 209.237 324.007 209.143 323.843 208.975C323.678 208.808 323.586 208.582 323.586 208.345C323.586 208.109 323.678 207.882 323.843 207.715C324.007 207.547 324.229 207.454 324.462 207.454H583.573C583.805 207.454 584.028 207.547 584.192 207.715C584.356 207.882 584.448 208.109 584.448 208.345C584.448 208.582 584.356 208.808 584.192 208.975C584.028 209.143 583.805 209.237 583.573 209.237Z" fill="#CCCCCC"/>
<path id="Vector_16" d="M583.573 239.548H324.462C324.229 239.548 324.007 239.455 323.843 239.287C323.678 239.12 323.586 238.893 323.586 238.657C323.586 238.42 323.678 238.194 323.843 238.027C324.007 237.859 324.229 237.765 324.462 237.765H583.573C583.805 237.765 584.028 237.859 584.192 238.027C584.356 238.194 584.448 238.42 584.448 238.657C584.448 238.893 584.356 239.12 584.192 239.287C584.028 239.455 583.805 239.548 583.573 239.548Z" fill="#CCCCCC"/>
<path id="Vector_17" d="M583.573 269.86H324.462C324.229 269.86 324.007 269.766 323.843 269.599C323.678 269.432 323.586 269.205 323.586 268.969C323.586 268.732 323.678 268.506 323.843 268.338C324.007 268.171 324.229 268.077 324.462 268.077H583.573C583.805 268.077 584.028 268.171 584.192 268.338C584.356 268.506 584.448 268.732 584.448 268.969C584.448 269.205 584.356 269.432 584.192 269.599C584.028 269.766 583.805 269.86 583.573 269.86Z" fill="#3F3D56"/>
</g>
<path id="blackboardGraphBar1" d="M373.483 269.86H348.097C346.936 269.859 345.824 269.389 345.003 268.553C344.183 267.718 343.721 266.584 343.72 265.403V241.332C343.721 240.15 344.183 239.017 345.003 238.181C345.824 237.345 346.936 236.875 348.097 236.874H373.483C374.643 236.875 375.756 237.345 376.576 238.181C377.397 239.017 377.858 240.15 377.86 241.332V265.403C377.858 266.584 377.397 267.718 376.576 268.553C375.756 269.389 374.643 269.859 373.483 269.86V269.86Z" fill="#7D71FA"/>
<path id="blackboardGraphBar2" d="M430.382 269.86H404.996C403.836 269.859 402.723 269.389 401.903 268.553C401.082 267.718 400.621 266.584 400.619 265.403V211.02C400.621 209.838 401.082 208.705 401.903 207.869C402.723 207.033 403.836 206.563 404.996 206.562H430.382C431.543 206.563 432.655 207.033 433.476 207.869C434.296 208.705 434.758 209.838 434.759 211.02V265.403C434.758 266.584 434.296 267.718 433.476 268.553C432.655 269.389 431.543 269.859 430.382 269.86V269.86Z" fill="#7D71FA"/>
<path id="blackboardGraphBar3" d="M488.157 269.86H462.771C461.611 269.859 460.498 269.389 459.678 268.553C458.857 267.718 458.396 266.584 458.394 265.403V180.708C458.396 179.526 458.857 178.393 459.678 177.557C460.498 176.722 461.611 176.252 462.771 176.25H488.157C489.317 176.252 490.43 176.722 491.25 177.557C492.071 178.393 492.533 179.526 492.534 180.708V265.403C492.533 266.584 492.071 267.718 491.25 268.553C490.43 269.389 489.317 269.859 488.157 269.86V269.86Z" fill="#7D71FA"/>
<path id="blackboardGraphBar4" d="M547.683 269.86H522.297C521.136 269.859 520.024 269.389 519.203 268.553C518.383 267.718 517.921 266.584 517.92 265.403V151.287C517.921 150.106 518.383 148.973 519.203 148.137C520.024 147.301 521.136 146.831 522.297 146.83H547.683C548.843 146.831 549.956 147.301 550.776 148.137C551.597 148.973 552.058 150.106 552.06 151.287V265.403C552.058 266.584 551.597 267.718 550.776 268.553C549.956 269.389 548.843 269.859 547.683 269.86V269.86Z" fill="#7D71FA"/>
<g id="guyHoldingPieChartVect">
<path id="Vector_18" d="M544.524 438.311C545.234 437.217 546.17 436.296 547.267 435.61C548.364 434.925 549.595 434.493 550.874 434.345C552.152 434.197 553.447 434.336 554.667 434.753C555.887 435.169 557.003 435.853 557.935 436.757L585.733 422.146L584.004 438.607L557.872 449.958C556.278 451.453 554.202 452.301 552.035 452.34C549.869 452.38 547.764 451.608 546.119 450.173C544.473 448.737 543.402 446.737 543.108 444.55C542.815 442.364 543.318 440.144 544.524 438.311Z" fill="#FFB8B8"/>
<path id="Vector_19" d="M568.442 444.45C567.811 443.946 567.346 443.259 567.108 442.479L564.897 435.204C564.66 434.416 564.666 433.573 564.914 432.788C565.163 432.003 565.642 431.315 566.287 430.817L588.817 413.485L613.218 367.383C614.24 366.042 615.511 364.92 616.959 364.079C618.407 363.239 620.003 362.697 621.657 362.486C623.31 362.274 624.989 362.395 626.596 362.844C628.203 363.293 629.708 364.06 631.024 365.1C632.341 366.141 633.443 367.436 634.268 368.911C635.093 370.386 635.624 372.011 635.832 373.695C636.04 375.379 635.92 377.089 635.48 378.726C635.039 380.362 634.286 381.895 633.264 383.235L619.382 413.075C615.17 422.132 607.871 429.323 598.843 433.31L572.439 444.973C571.931 445.197 571.383 445.31 570.83 445.304C570.276 445.298 569.73 445.173 569.227 444.938C568.948 444.808 568.684 444.644 568.442 444.45V444.45Z" fill="#3F3D56"/>
<path id="Vector_20" d="M633.877 348.142C645.752 348.142 655.378 338.338 655.378 326.245C655.378 314.152 645.752 304.348 633.877 304.348C622.003 304.348 612.377 314.152 612.377 326.245C612.377 338.338 622.003 348.142 633.877 348.142Z" fill="#FFB8B8"/>
<path id="Vector_21" d="M625.156 613.49L614.425 613.49L609.32 571.331L625.16 571.332L625.156 613.49Z" fill="#FFB8B8"/>
<path id="Vector_22" d="M606.758 610.366H627.456V623.638H593.727C593.727 621.895 594.064 620.17 594.719 618.559C595.374 616.949 596.333 615.486 597.544 614.254C598.754 613.021 600.19 612.044 601.771 611.377C603.352 610.71 605.047 610.366 606.758 610.366Z" fill="#2F2E41"/>
<path id="Vector_23" d="M660.171 613.492L649.44 613.491L644.335 571.332L660.175 571.334L660.171 613.492Z" fill="#FFB8B8"/>
<path id="Vector_24" d="M641.773 610.368H662.471V623.64H628.742C628.742 621.897 629.079 620.171 629.734 618.561C630.389 616.951 631.349 615.488 632.559 614.255C633.769 613.023 635.205 612.045 636.786 611.378C638.367 610.711 640.062 610.368 641.773 610.368V610.368Z" fill="#2F2E41"/>
<path id="Vector_25" d="M660.955 602.794L648.379 602.794C647.513 602.792 646.672 602.501 645.984 601.965C645.297 601.428 644.802 600.677 644.576 599.826L626.473 531.445C626.445 531.338 626.379 531.246 626.288 531.186C626.197 531.126 626.087 531.103 625.98 531.121C625.873 531.139 625.777 531.196 625.709 531.282C625.641 531.369 625.607 531.477 625.614 531.587L629.27 596.439C629.303 597.012 629.214 597.586 629.01 598.122C628.806 598.657 628.491 599.141 628.087 599.542C627.683 599.943 627.199 600.251 626.669 600.445C626.138 600.639 625.572 600.714 625.01 600.667L610.875 599.466C609.969 599.387 609.118 598.993 608.465 598.349C607.812 597.705 607.397 596.851 607.289 595.932L594.412 459.756L599.394 462.801L646.077 454.729L664.86 598.252C664.934 598.819 664.889 599.395 664.726 599.942C664.564 600.49 664.289 600.995 663.919 601.425C663.549 601.855 663.094 602.2 662.583 602.436C662.071 602.672 661.517 602.794 660.955 602.794H660.955Z" fill="#2F2E41"/>
<path id="Vector_26" d="M610.025 474.129C604.874 474.087 599.829 472.641 595.413 469.941C594.733 469.531 594.19 468.92 593.857 468.19C593.523 467.46 593.414 466.644 593.543 465.85C595.185 455.61 603.771 403.08 611.583 374.442C614.765 362.779 621.8 356.497 632.493 355.771C648.134 354.726 662.037 367.189 663.485 383.586C666.038 412.515 655.665 453.616 651.086 469.944C650.908 470.575 650.582 471.152 650.134 471.624C649.687 472.096 649.133 472.449 648.52 472.652C647.908 472.855 647.256 472.902 646.621 472.788C645.987 472.674 645.39 472.404 644.882 472.001L635.549 464.607C634.974 464.16 634.265 463.932 633.542 463.963C632.82 463.993 632.131 464.281 631.596 464.775C623.729 471.92 616.257 474.13 610.025 474.129Z" fill="#3F3D56"/>
<path id="Vector_27" opacity="0.2" d="M640.891 397.742L648.768 431.621L637.387 460.149L645.267 432.513L640.891 397.742Z" fill="black"/>
</g>
<path id="guyHoldingPieChartHeadVect" d="M646.146 344.251C648.058 344.288 649.959 343.938 651.738 343.221C652.52 342.914 653.333 342.662 654.114 342.354C661.014 339.64 665.559 332.157 665.722 324.626C665.885 317.094 662.056 309.785 656.37 304.967C650.684 300.15 643.318 297.676 635.943 297.104C627.999 296.487 619.053 298.539 614.614 305.277C613.432 307.07 612.606 309.246 613.306 311.412C613.516 312.065 613.89 312.651 614.392 313.111C616.374 314.907 618.351 313.557 620.372 313.438C623.15 313.274 625.644 315.564 626.541 318.246C627.438 320.929 627.043 323.882 626.319 326.618C625.767 328.265 625.419 329.975 625.283 331.709C625.225 332.579 625.385 333.449 625.75 334.238C626.114 335.026 626.67 335.707 627.365 336.215C629.101 337.284 631.38 336.666 633.117 335.599C634.854 334.532 636.355 333.049 638.231 332.264C640.107 331.479 642.628 331.653 643.719 333.394C644.066 334.028 644.301 334.718 644.413 335.434C645.392 339.977 645.167 339.709 646.146 344.251V344.251Z" fill="#2F2E41"/>
<g id="pieChardCardVect">
<path id="Vector_28" d="M612.821 582.906L478.192 535.156C475.882 534.333 473.986 532.611 472.921 530.367C471.856 528.123 471.708 525.541 472.511 523.186L507.496 420.876C508.087 419.153 509.326 417.738 510.94 416.944C512.554 416.149 514.412 416.039 516.106 416.637L655.286 466.002C657.008 466.615 658.421 467.899 659.214 469.571C660.008 471.243 660.118 473.168 659.52 474.923L624.574 577.12C623.766 579.473 622.075 581.404 619.872 582.488C617.669 583.573 615.133 583.723 612.821 582.906V582.906Z" fill="#E6E6E6"/>
<path id="Vector_29" d="M489.68 529.276L607.404 571.031C609.646 571.826 612.106 571.682 614.243 570.629C616.381 569.577 618.02 567.703 618.801 565.42L647.051 482.806C647.831 480.522 647.69 478.017 646.657 475.84C645.623 473.664 643.784 471.994 641.542 471.199L523.818 429.444C521.576 428.649 519.116 428.793 516.979 429.846C514.841 430.898 513.202 432.772 512.421 435.055L484.171 517.669C483.785 518.8 483.62 519.997 483.688 521.192C483.756 522.387 484.054 523.557 484.565 524.635C485.077 525.713 485.792 526.677 486.67 527.474C487.547 528.27 488.57 528.882 489.68 529.276Z" fill="white"/>
<path id="Vector_30" d="M519.242 471.232L513.412 469.164C513.096 469.051 512.837 468.816 512.691 468.509C512.545 468.202 512.525 467.849 512.635 467.526L514.665 461.589C514.776 461.267 515.007 461.003 515.308 460.854C515.61 460.706 515.957 460.685 516.273 460.797L522.103 462.865C522.419 462.977 522.679 463.213 522.824 463.52C522.97 463.827 522.99 464.18 522.88 464.503L520.85 470.44C520.74 470.762 520.508 471.026 520.207 471.175C519.905 471.323 519.559 471.344 519.242 471.232V471.232Z" fill="#7D71FA"/>
<path id="Vector_31" d="M513.982 486.616L508.151 484.548C507.835 484.436 507.576 484.2 507.43 483.893C507.285 483.586 507.264 483.233 507.374 482.911L509.405 476.973C509.515 476.651 509.746 476.387 510.048 476.239C510.349 476.09 510.696 476.07 511.012 476.181L516.843 478.249C517.159 478.362 517.418 478.597 517.564 478.904C517.709 479.211 517.73 479.565 517.62 479.887L515.589 485.825C515.479 486.146 515.248 486.411 514.946 486.559C514.645 486.707 514.298 486.728 513.982 486.616V486.616Z" fill="#3F3D56"/>
<path id="Vector_32" d="M508.721 502.001L502.891 499.933C502.575 499.82 502.315 499.584 502.17 499.277C502.024 498.971 502.004 498.617 502.113 498.295L504.144 492.357C504.254 492.035 504.486 491.771 504.787 491.623C505.088 491.474 505.435 491.454 505.752 491.566L511.582 493.634C511.898 493.746 512.157 493.982 512.303 494.289C512.449 494.596 512.469 494.949 512.359 495.271L510.329 501.209C510.218 501.531 509.987 501.795 509.686 501.943C509.384 502.092 509.037 502.112 508.721 502.001V502.001Z" fill="#CCCCCC"/>
<path id="Vector_33" d="M558.419 481.798L530.328 471.835C530.171 471.78 530.026 471.693 529.902 471.581C529.778 471.469 529.676 471.333 529.604 471.18C529.531 471.028 529.489 470.863 529.479 470.694C529.47 470.525 529.493 470.356 529.547 470.196C529.602 470.036 529.687 469.889 529.798 469.763C529.908 469.637 530.042 469.534 530.192 469.46C530.342 469.387 530.504 469.344 530.67 469.335C530.836 469.326 531.002 469.35 531.158 469.406L559.25 479.369C559.407 479.424 559.551 479.511 559.676 479.623C559.8 479.735 559.901 479.871 559.974 480.024C560.046 480.176 560.089 480.341 560.098 480.51C560.108 480.679 560.085 480.848 560.03 481.008C559.975 481.168 559.89 481.315 559.78 481.441C559.669 481.567 559.535 481.67 559.386 481.743C559.236 481.817 559.074 481.86 558.908 481.869C558.742 481.878 558.576 481.854 558.419 481.798V481.798Z" fill="#CCCCCC"/>
<path id="Vector_34" d="M553.158 497.183L525.067 487.219C524.751 487.107 524.491 486.871 524.346 486.564C524.2 486.257 524.18 485.904 524.29 485.582C524.4 485.259 524.631 484.995 524.933 484.847C525.234 484.698 525.582 484.678 525.898 484.79L553.989 494.753C554.146 494.809 554.291 494.895 554.415 495.007C554.539 495.12 554.64 495.256 554.713 495.408C554.785 495.56 554.827 495.725 554.837 495.894C554.847 496.063 554.823 496.232 554.769 496.392C554.714 496.552 554.629 496.699 554.519 496.825C554.408 496.951 554.274 497.054 554.125 497.127C553.975 497.201 553.813 497.244 553.647 497.253C553.481 497.262 553.315 497.239 553.158 497.183V497.183Z" fill="#CCCCCC"/>
<path id="Vector_35" d="M547.898 512.567L519.807 502.603C519.49 502.491 519.231 502.256 519.085 501.949C518.939 501.641 518.919 501.288 519.029 500.966C519.139 500.644 519.371 500.379 519.672 500.231C519.974 500.082 520.321 500.062 520.637 500.174L548.728 510.138C549.045 510.25 549.304 510.485 549.45 510.793C549.596 511.1 549.616 511.453 549.506 511.775C549.395 512.097 549.164 512.362 548.863 512.51C548.561 512.659 548.214 512.679 547.898 512.567V512.567Z" fill="#CCCCCC"/>
<path id="Vector_36" d="M622.654 520.902C622.858 520.402 623.051 519.894 623.228 519.376C625.537 512.624 625.118 505.214 622.063 498.777C619.007 492.34 613.566 487.402 606.936 485.051L597.703 512.053L622.654 520.902Z" fill="#7D71FA"/>
<path id="Vector_37" d="M595.018 513.695L604.251 486.694C599.372 484.963 594.101 484.724 589.09 486.007C584.079 487.29 579.547 490.039 576.051 493.914C572.556 497.79 570.25 502.622 569.419 507.816C568.588 513.01 569.268 518.338 571.374 523.143C573.481 527.948 576.922 532.02 581.274 534.857C585.626 537.694 590.698 539.172 595.864 539.108C601.031 539.045 606.066 537.443 610.35 534.499C614.633 531.556 617.977 527.4 619.969 522.545L595.018 513.695Z" fill="#3F3D56"/>
</g>
<g id="guyHoldingPieChartLeftArmVect">
<path id="Vector_38" d="M628.073 474.962C627.969 473.655 628.147 472.342 628.595 471.113C629.043 469.884 629.75 468.771 630.666 467.85C631.583 466.93 632.686 466.226 633.899 465.787C635.111 465.348 636.403 465.185 637.684 465.31L650.704 436.342L659.319 450.381L645.634 475.737C645.286 477.915 644.165 479.887 642.485 481.28C640.804 482.672 638.68 483.389 636.516 483.293C634.351 483.198 632.296 482.297 630.74 480.761C629.184 479.225 628.235 477.162 628.073 474.962V474.962Z" fill="#FFB8B8"/>
<path id="Vector_39" d="M650.614 464.76C649.812 464.76 649.029 464.511 648.37 464.047L642.222 459.712C641.558 459.241 641.051 458.574 640.771 457.801C640.491 457.027 640.451 456.185 640.657 455.387L647.883 427.589L639.148 375.976C639.138 374.278 639.456 372.594 640.086 371.021C640.715 369.448 641.643 368.017 642.816 366.809C643.988 365.602 645.384 364.641 646.921 363.983C648.458 363.325 650.108 362.982 651.776 362.974C653.444 362.966 655.097 363.293 656.64 363.935C658.184 364.578 659.588 365.525 660.772 366.721C661.957 367.917 662.898 369.339 663.542 370.905C664.186 372.472 664.521 374.152 664.527 375.851L671.685 408.056C673.859 417.83 672.473 428.075 667.785 436.887L654.076 462.659C653.812 463.155 653.449 463.588 653.009 463.931C652.57 464.274 652.065 464.519 651.527 464.65C651.228 464.723 650.921 464.76 650.614 464.76V464.76Z" fill="#3F3D56"/>
</g>
<g id="guyOnBoardBody">
<path id="Vector_40" d="M395.211 435.083C394.19 435.081 393.209 434.674 392.477 433.949C391.744 433.224 391.318 432.237 391.286 431.197C390.939 420.257 390.344 382.402 397.258 354.611C399.145 347.019 403.38 340.247 409.338 335.295C415.296 330.344 422.659 327.477 430.341 327.117V327.117C437.901 326.697 445.4 328.711 451.773 332.876C458.146 337.04 463.069 343.143 465.845 350.318C477.466 380.365 488.445 417.401 474.757 423.21C456.816 430.823 409.521 434.217 395.453 435.075C395.372 435.08 395.291 435.083 395.211 435.083Z" fill="#3F3D56"/>
<path id="guyOnBoards" d="M446.009 601.809H426.093C425.572 601.809 425.056 601.703 424.575 601.498C424.094 601.294 423.657 600.994 423.291 600.616C422.925 600.239 422.635 599.79 422.44 599.298C422.245 598.806 422.148 598.279 422.154 597.748L423.312 501.435C423.316 501.093 423.191 500.763 422.963 500.511C422.735 500.26 422.421 500.107 422.086 500.084C421.751 500.061 421.42 500.17 421.161 500.388C420.903 500.607 420.736 500.917 420.695 501.257L409.104 598.282C408.987 599.254 408.525 600.15 407.805 600.799C407.085 601.449 406.156 601.808 405.194 601.809H385.087C384.544 601.809 384.007 601.694 383.509 601.473C383.011 601.251 382.564 600.927 382.195 600.521C381.826 600.115 381.544 599.635 381.366 599.113C381.188 598.59 381.118 598.036 381.16 597.484L394.437 424.461L394.798 424.421L458.376 417.428L449.943 597.987C449.896 599.018 449.461 599.99 448.728 600.702C447.995 601.413 447.021 601.81 446.009 601.809V601.809Z" fill="#2F2E41"/>
<path id="Vector_41" d="M429.408 610.908L440.14 610.907L445.246 568.749H429.406L429.408 610.908Z" fill="#A0616A"/>
<path id="Vector_42" d="M426.671 607.339L447.806 607.338H447.807C449.575 607.338 451.327 607.693 452.961 608.382C454.595 609.072 456.08 610.082 457.331 611.356C458.581 612.63 459.574 614.142 460.251 615.806C460.927 617.47 461.276 619.254 461.276 621.056V621.501L426.672 621.503L426.671 607.339Z" fill="#2F2E41"/>
<path id="Vector_43" d="M386.515 610.908L397.247 610.907L402.352 568.749H386.513L386.515 610.908Z" fill="#A0616A"/>
<path id="Vector_44" d="M383.777 607.339L404.912 607.338H404.913C406.682 607.338 408.434 607.693 410.068 608.382C411.702 609.072 413.187 610.082 414.437 611.356C415.688 612.63 416.68 614.142 417.357 615.806C418.034 617.47 418.382 619.254 418.382 621.056V621.501L383.778 621.503L383.777 607.339Z" fill="#2F2E41"/>
</g>
<g id="guyOnBoardRightArm">
<path id="Vector_45" d="M477.384 275.011C477.722 275.365 478.087 275.691 478.475 275.986L476.218 320.14L466.83 325.035L472.232 340.429L489.678 333.409C491.087 332.841 492.278 331.824 493.071 330.509C493.864 329.194 494.218 327.652 494.077 326.115L489.507 276.03C491.002 274.894 492.123 273.32 492.719 271.52C493.315 269.719 493.359 267.776 492.845 265.949C492.33 264.122 491.282 262.498 489.839 261.293C488.396 260.088 486.627 259.359 484.767 259.203C482.908 259.046 481.045 259.47 479.428 260.418C477.811 261.366 476.515 262.793 475.714 264.509C474.912 266.226 474.643 268.15 474.941 270.026C475.24 271.902 476.092 273.641 477.384 275.011V275.011Z" fill="#A0616A"/>
<path id="Vector_46" d="M476.396 321.783L483 340.897C483.188 341.44 483.258 342.019 483.207 342.593C483.155 343.167 482.983 343.723 482.701 344.224C482.42 344.724 482.036 345.156 481.575 345.492C481.115 345.827 480.589 346.057 480.033 346.167L460.56 350.007C457.823 350.971 454.822 350.79 452.215 349.503C449.609 348.217 447.609 345.93 446.656 343.145C445.703 340.359 445.873 337.302 447.129 334.644C448.385 331.986 450.625 329.944 453.358 328.966L470.842 319.567C471.343 319.298 471.895 319.142 472.46 319.109C473.025 319.077 473.59 319.169 474.118 319.38C474.645 319.59 475.121 319.914 475.514 320.329C475.907 320.743 476.208 321.239 476.396 321.783V321.783Z" fill="#3F3D56"/>
</g>
<g id="guyOnBoardLeftArm">
<path id="Vector_47" d="M384.256 275.011C383.918 275.365 383.553 275.691 383.165 275.986L385.422 320.14L394.81 325.035L389.408 340.429L371.962 333.409C370.552 332.841 369.362 331.824 368.568 330.509C367.775 329.194 367.422 327.652 367.562 326.115L372.133 276.03C370.637 274.894 369.517 273.32 368.921 271.52C368.324 269.719 368.281 267.776 368.795 265.949C369.31 264.122 370.358 262.498 371.801 261.293C373.244 260.088 375.013 259.359 376.872 259.203C378.732 259.046 380.594 259.47 382.211 260.418C383.829 261.366 385.124 262.793 385.926 264.509C386.727 266.226 386.997 268.15 386.699 270.026C386.4 271.902 385.548 273.641 384.256 275.011H384.256Z" fill="#A0616A"/>
<path id="Vector_48" d="M387.522 319.38C388.049 319.169 388.615 319.077 389.18 319.109C389.745 319.141 390.297 319.297 390.797 319.566L408.282 328.966C411.014 329.944 413.254 331.986 414.511 334.644C415.767 337.302 415.937 340.359 414.984 343.144C414.03 345.93 412.031 348.217 409.425 349.503C406.818 350.79 403.817 350.971 401.08 350.007L381.606 346.167C381.051 346.057 380.525 345.827 380.064 345.491C379.604 345.156 379.22 344.724 378.938 344.224C378.657 343.723 378.484 343.167 378.433 342.593C378.381 342.019 378.452 341.44 378.64 340.897L385.244 321.783C385.431 321.239 385.732 320.743 386.125 320.328C386.519 319.913 386.995 319.59 387.522 319.38V319.38Z" fill="#3F3D56"/>
</g>
<g id="guyOnBoardHead">
<path id="guyOnBoardFace" d="M431.55 319.039C443.425 319.039 453.051 309.236 453.051 297.143C453.051 285.049 443.425 275.246 431.55 275.246C419.676 275.246 410.05 285.049 410.05 297.143C410.05 309.236 419.676 319.039 431.55 319.039Z" fill="#A0616A"/>
<path id="guyOnBoardHair" d="M439.901 300.875C439.788 298.082 440.476 295.316 441.882 292.914C443.287 290.513 445.349 288.58 447.815 287.353C454.35 283.917 458.456 276.587 456.657 269.895C454.354 261.328 442.906 255.772 433.63 258.72C431.119 259.627 428.698 260.773 426.399 262.142L420.338 265.451C417.749 266.771 415.253 268.272 412.868 269.942C409.295 272.624 406.494 276.234 404.759 280.394C403.023 284.555 402.417 289.114 403.002 293.594C404.195 302.304 409.796 310.29 417.461 315.759C420.393 317.99 423.779 319.523 427.369 320.244C431.044 320.861 435.134 320.16 437.821 317.833C442.019 314.196 441.586 308.105 440.228 303.019C440.048 302.317 439.939 301.599 439.901 300.875Z" fill="#2F2E41"/>
</g>
<path id="Vector_49" d="M652.971 619.756H486.649C486.417 619.756 486.194 619.662 486.03 619.495C485.866 619.327 485.774 619.101 485.774 618.864C485.774 618.628 485.866 618.401 486.03 618.234C486.194 618.067 486.417 617.973 486.649 617.973H652.971C653.203 617.973 653.426 618.067 653.59 618.234C653.754 618.401 653.846 618.628 653.846 618.864C653.846 619.101 653.754 619.327 653.59 619.495C653.426 619.662 653.203 619.756 652.971 619.756Z" fill="#CCCCCC"/>
<g id="graphLadyIsHolding">
<path id="Vector_50" d="M381.525 457.117L244.286 514.457C241.929 515.439 239.286 515.428 236.937 514.428C234.587 513.427 232.724 511.519 231.755 509.12L189.744 404.827C189.038 403.069 189.045 401.097 189.765 399.344C190.485 397.591 191.858 396.2 193.583 395.477L335.461 336.198C337.218 335.467 339.188 335.475 340.939 336.22C342.689 336.966 344.078 338.389 344.801 340.176L386.765 444.355C387.729 446.755 387.719 449.447 386.736 451.839C385.754 454.232 383.88 456.13 381.525 457.117V457.117Z" fill="#E6E6E6"/>
<path id="Vector_51" d="M249.257 501.808L369.263 451.667C371.548 450.713 373.368 448.872 374.321 446.552C375.274 444.231 375.282 441.619 374.345 439.292L340.421 355.076C339.957 353.923 339.274 352.875 338.412 351.992C337.551 351.108 336.526 350.406 335.398 349.925C334.269 349.444 333.059 349.195 331.836 349.191C330.613 349.187 329.401 349.428 328.27 349.9L208.264 400.041C207.132 400.513 206.103 401.209 205.235 402.086C204.368 402.964 203.678 404.007 203.206 405.157C202.734 406.306 202.489 407.538 202.485 408.784C202.481 410.03 202.718 411.264 203.182 412.416L237.106 496.632C237.57 497.785 238.252 498.833 239.114 499.717C239.976 500.6 241.001 501.303 242.129 501.783C243.257 502.264 244.468 502.513 245.691 502.517C246.914 502.522 248.126 502.28 249.257 501.808V501.808Z" fill="white"/>
<path id="Vector_52" d="M339.758 378.043L337.994 378.78L338.114 379.079L339.879 378.342L339.758 378.043Z" fill="#E6E6E6"/>
<path id="Vector_53" d="M334.55 380.569L330.986 382.058L330.865 381.758L334.429 380.269L334.55 380.569ZM327.421 383.547L323.857 385.036L323.736 384.737L327.301 383.248L327.421 383.547ZM320.293 386.526L316.728 388.015L316.608 387.715L320.172 386.226L320.293 386.526ZM313.164 389.504L309.6 390.993L309.479 390.694L313.043 389.205L313.164 389.504ZM306.035 392.482L302.471 393.972L302.351 393.672L305.915 392.183L306.035 392.482ZM298.907 395.461L295.342 396.95L295.222 396.651L298.786 395.161L298.907 395.461ZM291.778 398.439L288.214 399.929L288.093 399.629L291.658 398.14L291.778 398.439ZM284.65 401.418L281.085 402.907L280.965 402.608L284.529 401.118L284.65 401.418ZM277.521 404.396L273.957 405.885L273.836 405.586L277.4 404.097L277.521 404.396ZM270.392 407.375L266.828 408.864L266.707 408.564L270.272 407.075L270.392 407.375ZM263.264 410.353L259.699 411.842L259.579 411.543L263.143 410.054L263.264 410.353ZM256.135 413.332L252.571 414.821L252.45 414.521L256.014 413.032L256.135 413.332ZM249.006 416.31L245.442 417.799L245.321 417.5L248.886 416.011L249.006 416.31ZM241.878 419.289L238.313 420.778L238.193 420.478L241.757 418.989L241.878 419.289ZM234.749 422.267L231.185 423.756L231.064 423.457L234.628 421.968L234.749 422.267ZM227.62 425.245L224.056 426.735L223.935 426.435L227.5 424.946L227.62 425.245Z" fill="#E6E6E6"/>
<path id="Vector_54" d="M220.371 427.924L218.607 428.662L218.727 428.961L220.492 428.224L220.371 427.924Z" fill="#E6E6E6"/>
<path id="Vector_55" d="M293.048 430.098L291.284 430.835L291.404 431.135L293.169 430.398L293.048 430.098Z" fill="#E6E6E6"/>
<path id="Vector_56" d="M287.893 432.602L284.381 434.069L284.261 433.769L287.772 432.302L287.893 432.602ZM280.87 435.536L277.359 437.003L277.238 436.704L280.749 435.237L280.87 435.536ZM273.847 438.47L270.336 439.937L270.215 439.638L273.727 438.171L273.847 438.47ZM266.825 441.405L263.313 442.872L263.193 442.572L266.704 441.105L266.825 441.405ZM259.802 444.339L256.29 445.806L256.17 445.506L259.681 444.039L259.802 444.339ZM252.779 447.273L249.268 448.74L249.147 448.441L252.658 446.974L252.779 447.273ZM245.756 450.207L242.245 451.674L242.124 451.375L245.636 449.908L245.756 450.207ZM238.734 453.142L235.222 454.609L235.102 454.309L238.613 452.842L238.734 453.142Z" fill="#E6E6E6"/>
<path id="Vector_57" d="M231.59 455.776L229.826 456.513L229.947 456.813L231.711 456.076L231.59 455.776Z" fill="#E6E6E6"/>
<path id="Vector_58" d="M263.951 457.65L262.187 458.387L262.308 458.687L264.072 457.95L263.951 457.65Z" fill="#E6E6E6"/>
<path id="Vector_59" d="M258.695 460.196L255.082 461.706L254.962 461.406L258.574 459.897L258.695 460.196ZM251.47 463.215L247.857 464.724L247.736 464.425L251.349 462.916L251.47 463.215ZM244.244 466.234L240.632 467.743L240.511 467.444L244.124 465.934L244.244 466.234Z" fill="#E6E6E6"/>
<path id="Vector_60" d="M236.898 468.953L235.134 469.69L235.255 469.99L237.019 469.253L236.898 468.953Z" fill="#E6E6E6"/>
<path id="Vector_61" d="M273.01 480.137L271.245 480.874L271.366 481.174L273.13 480.437L273.01 480.137Z" fill="#E6E6E6"/>
<path id="Vector_62" d="M267.753 482.683L264.141 484.193L264.02 483.893L267.633 482.384L267.753 482.683ZM260.528 485.702L256.915 487.212L256.795 486.912L260.407 485.403L260.528 485.702ZM253.302 488.721L249.69 490.23L249.569 489.931L253.182 488.422L253.302 488.721Z" fill="#E6E6E6"/>
<path id="Vector_63" d="M245.956 491.44L244.192 492.178L244.313 492.477L246.077 491.74L245.956 491.44Z" fill="#E6E6E6"/>
<path id="Vector_64" d="M254.353 488.551L356.05 446.06C358.511 445.029 360.47 443.045 361.497 440.544C362.523 438.043 362.534 435.23 361.527 432.721L340.98 381.711L340.781 381.801L315.825 442.574L297.315 434.693C296.973 434.546 296.603 434.482 296.233 434.506C295.863 434.529 295.504 434.64 295.183 434.828C294.701 435.124 294.328 435.573 294.122 436.106L281.043 467.953L267.51 462.191C267.218 462.067 266.904 462.002 266.588 462.001C266.271 462 265.958 462.062 265.665 462.185C265.372 462.307 265.105 462.487 264.881 462.714C264.656 462.941 264.478 463.211 264.356 463.509C264.269 463.725 255.925 484.576 254.353 488.551Z" fill="#7D71FA"/>
<path id="Vector_65" d="M254.04 489.031L253.746 488.906L264.211 463.421C264.488 462.748 265.016 462.215 265.679 461.938C266.341 461.661 267.085 461.663 267.746 461.944L281.012 467.594L294.016 435.923C294.294 435.25 294.821 434.717 295.484 434.44C296.147 434.163 296.89 434.165 297.551 434.446L315.793 442.215L340.878 381.125L341.171 381.25L315.964 442.639L297.429 434.744C297.14 434.621 296.83 434.558 296.517 434.556C296.204 434.555 295.894 434.617 295.604 434.738C295.315 434.859 295.051 435.037 294.829 435.262C294.607 435.486 294.43 435.753 294.31 436.048L281.182 468.017L267.623 462.243C267.04 461.995 266.384 461.993 265.799 462.237C265.215 462.482 264.749 462.952 264.504 463.546L254.04 489.031Z" fill="#3F3D56"/>
<path id="Vector_66" d="M264.012 460.066C265.241 460.066 266.237 459.051 266.237 457.8C266.237 456.548 265.241 455.534 264.012 455.534C262.783 455.534 261.787 456.548 261.787 457.8C261.787 459.051 262.783 460.066 264.012 460.066Z" fill="#3F3D56"/>
<path id="Vector_67" d="M293.108 432.514C294.337 432.514 295.333 431.499 295.333 430.248C295.333 428.996 294.337 427.982 293.108 427.982C291.88 427.982 290.883 428.996 290.883 430.248C290.883 431.499 291.88 432.514 293.108 432.514Z" fill="#3F3D56"/>
<path id="Vector_68" d="M338.415 380.378C339.644 380.378 340.64 379.364 340.64 378.112C340.64 376.861 339.644 375.846 338.415 375.846C337.186 375.846 336.19 376.861 336.19 378.112C336.19 379.364 337.186 380.378 338.415 380.378Z" fill="#3F3D56"/>
</g>
<g id="ladyWithGraphVect">
<path id="Vector_69" d="M213.883 455.229C215.039 454.642 216.056 453.805 216.86 452.776C217.665 451.746 218.238 450.55 218.539 449.27C218.84 447.991 218.862 446.66 218.604 445.37C218.345 444.081 217.813 442.866 217.043 441.809L223.651 376.011H209.37L204.119 440.259C202.462 441.694 201.379 443.698 201.075 445.891C200.772 448.085 201.269 450.316 202.472 452.161C203.676 454.006 205.502 455.337 207.605 455.903C209.708 456.468 211.942 456.228 213.883 455.229Z" fill="#FFB8B8"/>
<path id="Vector_70" d="M226.995 339.698C238.153 339.698 247.198 330.486 247.198 319.122C247.198 307.758 238.153 298.545 226.995 298.545C215.836 298.545 206.791 307.758 206.791 319.122C206.791 330.486 215.836 339.698 226.995 339.698Z" fill="#FFB8B8"/>
<path id="Vector_71" d="M230.798 414.329C229.989 414.329 229.203 414.059 228.56 413.56C227.917 413.06 227.452 412.36 227.237 411.566C225.618 405.576 221.407 395.449 214.72 381.465C213.211 378.304 212.376 374.854 212.269 371.34C212.161 367.827 212.784 364.331 214.097 361.08C215.41 357.829 217.383 354.898 219.886 352.479C222.389 350.059 225.367 348.206 228.623 347.041C231.708 345.931 234.981 345.463 238.248 345.664C241.514 345.866 244.707 346.732 247.639 348.212C250.571 349.692 253.182 351.757 255.316 354.282C257.451 356.808 259.067 359.744 260.068 362.917C265.251 379.466 265.001 397.194 264.652 404.046C264.609 404.872 264.302 405.66 263.776 406.29C263.251 406.92 262.538 407.358 261.745 407.536L231.592 414.242C231.331 414.3 231.065 414.33 230.798 414.329Z" fill="#FF6584"/>
<path id="Vector_72" d="M259.998 609.721H270.083L274.881 570.104L259.997 570.105L259.998 609.721Z" fill="#FFB8B8"/>
<path id="Vector_73" d="M289.533 619.257L257.838 619.258L257.837 606.787L277.286 606.786C278.894 606.786 280.487 607.108 281.973 607.735C283.458 608.362 284.808 609.28 285.946 610.438C287.083 611.596 287.985 612.971 288.6 614.484C289.216 615.997 289.533 617.619 289.533 619.257Z" fill="#2F2E41"/>
<path id="Vector_74" d="M159.155 596.41L167.993 601.358L190.938 568.998L177.896 561.694L159.155 596.41Z" fill="#FFB8B8"/>
<path id="Vector_75" d="M180.525 619.258L152.75 603.707L158.65 592.778L175.693 602.321C178.539 603.914 180.647 606.594 181.553 609.771C182.459 612.947 182.089 616.36 180.525 619.258V619.258V619.258Z" fill="#2F2E41"/>
<path id="Vector_76" d="M259.527 587.732C258.628 587.731 257.761 587.397 257.086 586.793C256.411 586.189 255.975 585.355 255.86 584.447L243.248 485.466C243.192 485.028 243.002 484.62 242.704 484.299C242.407 483.977 242.017 483.76 241.591 483.678C241.166 483.595 240.725 483.652 240.333 483.84C239.941 484.028 239.617 484.338 239.407 484.724L186.845 581.847C186.411 582.64 185.712 583.248 184.876 583.561C184.039 583.874 183.12 583.87 182.285 583.551L170.828 579.106C170.367 578.927 169.946 578.656 169.59 578.309C169.233 577.962 168.948 577.547 168.751 577.086C168.555 576.625 168.45 576.129 168.445 575.627C168.439 575.125 168.532 574.627 168.717 574.162L205.129 483.065C205.221 482.834 205.284 482.591 205.315 482.343C210.247 443.468 222.795 423.699 226.523 418.566C226.795 418.189 226.974 417.75 227.045 417.287C227.116 416.825 227.077 416.352 226.931 415.908L226.418 414.342C226.213 413.72 226.172 413.055 226.296 412.412C226.421 411.769 226.709 411.17 227.131 410.675C240.565 395.091 263.98 403.595 264.215 403.682L264.332 403.727L264.405 403.829C290.66 440.5 280.953 559.607 278.741 583.111C278.658 583.995 278.271 584.82 277.649 585.44C277.027 586.061 276.209 586.438 275.34 586.504L259.815 587.721C259.718 587.729 259.622 587.732 259.527 587.732Z" fill="#2F2E41"/>
<path id="Vector_77" d="M305.539 343.023C305.438 343.475 305.372 343.935 305.342 344.397L270.006 365.159L261.417 360.123L252.26 372.331L266.615 382.751C267.775 383.593 269.171 384.029 270.595 383.993C272.018 383.958 273.392 383.453 274.51 382.555L310.948 353.279C312.593 353.899 314.384 353.994 316.083 353.552C317.782 353.11 319.308 352.152 320.459 350.805C321.61 349.458 322.332 347.786 322.527 346.011C322.722 344.236 322.383 342.443 321.553 340.87C320.723 339.297 319.443 338.018 317.882 337.204C316.321 336.39 314.554 336.079 312.816 336.313C311.077 336.547 309.45 337.314 308.15 338.513C306.85 339.711 305.94 341.285 305.539 343.023V343.023Z" fill="#FFB8B8"/>
<path id="Vector_78" d="M268.824 366.142L257.404 381.217C257.079 381.646 256.667 381.998 256.196 382.251C255.725 382.503 255.207 382.649 254.676 382.678C254.144 382.708 253.613 382.621 253.118 382.422C252.623 382.224 252.176 381.919 251.807 381.529L238.878 367.856C236.733 366.15 235.339 363.648 235.003 360.897C234.666 358.147 235.415 355.372 237.083 353.183C238.752 350.993 241.206 349.567 243.905 349.217C246.605 348.867 249.331 349.621 251.486 351.315L267.701 360.549C268.166 360.814 268.568 361.177 268.882 361.615C269.196 362.052 269.414 362.553 269.52 363.084C269.627 363.615 269.62 364.163 269.5 364.69C269.38 365.218 269.149 365.713 268.824 366.142V366.142Z" fill="#FF6584"/>
<path id="Vector_79" d="M224.56 392.333L206.162 388.949C205.638 388.853 205.141 388.643 204.705 388.334C204.268 388.024 203.902 387.622 203.632 387.156C203.361 386.689 203.193 386.169 203.138 385.63C203.082 385.091 203.142 384.547 203.312 384.033L209.276 366.049C209.775 363.324 211.314 360.911 213.557 359.34C215.799 357.769 218.562 357.168 221.239 357.669C223.916 358.17 226.289 359.731 227.837 362.01C229.386 364.29 229.983 367.102 229.499 369.83L228.917 388.742C228.9 389.283 228.769 389.815 228.532 390.3C228.296 390.785 227.959 391.213 227.546 391.554C227.132 391.894 226.651 392.14 226.136 392.275C225.621 392.409 225.083 392.429 224.559 392.333H224.56Z" fill="#FF6584"/>
<path id="Vector_80" d="M230.192 314.389C235.385 318.008 242.203 321.729 247.507 317.874C249.166 316.588 250.371 314.789 250.942 312.746C251.513 310.703 251.419 308.527 250.675 306.544C248.135 299.147 241.158 295.891 234.485 293.395C225.812 290.151 216.367 287.569 207.413 289.893C198.459 292.217 190.545 301.046 192.162 310.312C193.462 317.763 200.363 323.963 199.383 331.465C198.397 339.015 190.06 342.989 182.7 344.339C175.339 345.688 167.103 346.122 161.813 351.506C155.066 358.375 156.751 370.652 163.1 377.904C169.45 385.156 179.031 388.443 188.316 390.678C200.617 393.639 213.922 395.195 225.606 390.281C237.289 385.367 246.381 372.139 242.996 359.736C241.567 354.497 238.199 350.069 234.944 345.758C231.69 341.448 228.394 336.94 227.152 331.651C226.118 327.244 226.884 322.127 229.753 318.821C230.275 318.242 230.604 317.51 230.692 316.729C230.779 315.949 230.622 315.16 230.242 314.476L230.192 314.389Z" fill="#2F2E41"/>
<path id="Vector_81" d="M307.197 619.756H140.875C140.643 619.756 140.421 619.662 140.256 619.495C140.092 619.327 140 619.101 140 618.864C140 618.628 140.092 618.401 140.256 618.234C140.421 618.067 140.643 617.973 140.875 617.973H307.197C307.429 617.973 307.652 618.067 307.816 618.234C307.98 618.401 308.072 618.628 308.072 618.864C308.072 619.101 307.98 619.327 307.816 619.495C307.652 619.662 307.429 619.756 307.197 619.756Z" fill="#CCCCCC"/>
</g>
</g>
<defs>
<clipPath id="clip0">
<rect width="871" height="622" fill="white"/>
</clipPath>
</defs>
</svg>
