<svg width="637" height="455" viewBox="0 0 637 455" fill="none" xmlns="http://www.w3.org/2000/svg">
<g id="undraw_Data_re_80ws 1" clip-path="url(#clip0)">
<g id="blackboardVect">
<path id="Vector" d="M520.284 285.286H110.019C107.218 285.283 104.533 284.148 102.553 282.131C100.572 280.114 99.4585 277.38 99.4553 274.528V16.8832C99.4576 14.7936 100.274 12.7902 101.724 11.3126C103.175 9.83502 105.142 9.00384 107.194 9.00144H522.975C525.062 9.00386 527.063 9.84939 528.539 11.3525C530.015 12.8557 530.845 14.8937 530.847 17.0195V274.528C530.844 277.38 529.73 280.114 527.75 282.131C525.77 284.148 523.085 285.283 520.284 285.286V285.286Z" fill="#F2F2F2"/>
<path id="Vector_2" d="M505.318 270.05H122.961C117.356 270.05 112.796 265.701 112.796 260.356V35.9961C112.796 32.0318 116.175 28.8065 120.329 28.8065H507.826C512.048 28.8065 515.483 32.085 515.483 36.1145V260.356C515.483 265.701 510.923 270.05 505.318 270.05Z" fill="white"/>
<path id="Vector_3" d="M530.7 16.2678H99.307V10.7906C99.3111 7.9289 100.43 5.18565 102.417 3.16271C104.405 1.13978 107.099 0.00236428 109.909 0H520.099C522.908 0.0023505 525.603 1.13976 527.59 3.1627C529.578 5.18564 530.696 7.9289 530.7 10.7906V16.2678Z" fill="#CCCCCC"/>
<path id="Vector_4" d="M118.574 10.943C120.089 10.943 121.316 9.69258 121.316 8.15014C121.316 6.60769 120.089 5.3573 118.574 5.3573C117.06 5.3573 115.832 6.60769 115.832 8.15014C115.832 9.69258 117.06 10.943 118.574 10.943Z" fill="white"/>
<path id="Vector_5" d="M128.983 10.943C130.498 10.943 131.725 9.69258 131.725 8.15014C131.725 6.60769 130.498 5.3573 128.983 5.3573C127.469 5.3573 126.241 6.60769 126.241 8.15014C126.241 9.69258 127.469 10.943 128.983 10.943Z" fill="white"/>
<path id="Vector_6" d="M139.392 10.943C140.906 10.943 142.134 9.69258 142.134 8.15014C142.134 6.60769 140.906 5.3573 139.392 5.3573C137.877 5.3573 136.65 6.60769 136.65 8.15014C136.65 9.69258 137.877 10.943 139.392 10.943Z" fill="white"/>
</g>
<g id="blackboardGraph">
<path id="Vector_7" d="M463.232 232.422H166.922C163.952 232.418 161.104 231.215 159.004 229.076C156.904 226.937 155.722 224.037 155.719 221.011V75.5128C155.721 73.2503 156.605 71.0813 158.176 69.4814C159.746 67.8816 161.876 66.9817 164.098 66.979H465.923C468.18 66.9817 470.344 67.896 471.939 69.5214C473.535 71.1467 474.433 73.3505 474.436 75.6491V221.011C474.432 224.037 473.251 226.937 471.15 229.076C469.05 231.215 466.202 232.418 463.232 232.422V232.422ZM164.098 68.2831C162.216 68.2853 160.411 69.0477 159.081 70.4031C157.75 71.7584 157.001 73.5961 156.999 75.5128V221.011C157.002 223.691 158.049 226.26 159.909 228.154C161.769 230.049 164.291 231.115 166.922 231.118H463.232C465.863 231.115 468.385 230.049 470.245 228.154C472.106 226.26 473.152 223.691 473.155 221.011V75.6491C473.153 73.6962 472.39 71.8239 471.035 70.443C469.679 69.0621 467.84 68.2853 465.923 68.2831H164.098Z" fill="#CCCCCC"/>
<path id="Vector_8" d="M177.166 221.011H452.989C455.705 221.011 458.311 219.912 460.232 217.956C462.153 216 463.232 213.346 463.232 210.579V88.9481C463.232 86.1813 462.153 83.5279 460.232 81.5715C458.311 79.615 455.705 78.5159 452.989 78.5159H177.166C174.449 78.5159 171.844 79.615 169.923 81.5715C168.002 83.5279 166.922 86.1813 166.922 88.9481V210.579C166.922 213.346 168.002 216 169.923 217.956C171.844 219.912 174.449 221.011 177.166 221.011Z" fill="#F2F2F2"/>
<path id="Vector_9" d="M208.484 113.903C211.666 113.903 214.245 111.276 214.245 108.035C214.245 104.794 211.666 102.167 208.484 102.167C205.302 102.167 202.722 104.794 202.722 108.035C202.722 111.276 205.302 113.903 208.484 113.903Z" fill="#CCCCCC"/>
<path id="Vector_10" d="M208.484 136.071C211.666 136.071 214.245 133.444 214.245 130.203C214.245 126.963 211.666 124.335 208.484 124.335C205.302 124.335 202.722 126.963 202.722 130.203C202.722 133.444 205.302 136.071 208.484 136.071Z" fill="#CCCCCC"/>
<path id="Vector_11" d="M208.484 158.24C211.666 158.24 214.245 155.613 214.245 152.372C214.245 149.131 211.666 146.504 208.484 146.504C205.302 146.504 202.722 149.131 202.722 152.372C202.722 155.613 205.302 158.24 208.484 158.24Z" fill="#CCCCCC"/>
<path id="Vector_12" d="M208.484 180.408C211.666 180.408 214.245 177.781 214.245 174.54C214.245 171.299 211.666 168.672 208.484 168.672C205.302 168.672 202.722 171.299 202.722 174.54C202.722 177.781 205.302 180.408 208.484 180.408Z" fill="#CCCCCC"/>
<path id="Vector_13" d="M426.792 108.687H237.293C237.123 108.687 236.96 108.618 236.84 108.496C236.72 108.374 236.653 108.208 236.653 108.035C236.653 107.862 236.72 107.696 236.84 107.574C236.96 107.452 237.123 107.383 237.293 107.383H426.792C426.962 107.383 427.125 107.452 427.245 107.574C427.365 107.696 427.432 107.862 427.432 108.035C427.432 108.208 427.365 108.374 427.245 108.496C427.125 108.618 426.962 108.687 426.792 108.687Z" fill="#CCCCCC"/>
<path id="Vector_14" d="M426.792 130.855H237.293C237.123 130.855 236.96 130.787 236.84 130.664C236.72 130.542 236.653 130.376 236.653 130.203C236.653 130.03 236.72 129.865 236.84 129.742C236.96 129.62 237.123 129.551 237.293 129.551H426.792C426.962 129.551 427.125 129.62 427.245 129.742C427.365 129.865 427.432 130.03 427.432 130.203C427.432 130.376 427.365 130.542 427.245 130.664C427.125 130.787 426.962 130.855 426.792 130.855Z" fill="#CCCCCC"/>
<path id="Vector_15" d="M426.792 153.024H237.293C237.123 153.024 236.96 152.955 236.84 152.833C236.72 152.711 236.653 152.545 236.653 152.372C236.653 152.199 236.72 152.033 236.84 151.911C236.96 151.788 237.123 151.72 237.293 151.72H426.792C426.962 151.72 427.125 151.788 427.245 151.911C427.365 152.033 427.432 152.199 427.432 152.372C427.432 152.545 427.365 152.711 427.245 152.833C427.125 152.955 426.962 153.024 426.792 153.024Z" fill="#CCCCCC"/>
<path id="Vector_16" d="M426.792 175.192H237.293C237.123 175.192 236.96 175.123 236.84 175.001C236.72 174.879 236.653 174.713 236.653 174.54C236.653 174.367 236.72 174.201 236.84 174.079C236.96 173.957 237.123 173.888 237.293 173.888H426.792C426.962 173.888 427.125 173.957 427.245 174.079C427.365 174.201 427.432 174.367 427.432 174.54C427.432 174.713 427.365 174.879 427.245 175.001C427.125 175.123 426.962 175.192 426.792 175.192Z" fill="#CCCCCC"/>
<path id="Vector_17" d="M426.792 197.36H237.293C237.123 197.36 236.96 197.292 236.84 197.17C236.72 197.047 236.653 196.881 236.653 196.709C236.653 196.536 236.72 196.37 236.84 196.248C236.96 196.125 237.123 196.057 237.293 196.057H426.792C426.962 196.057 427.125 196.125 427.245 196.248C427.365 196.37 427.432 196.536 427.432 196.709C427.432 196.881 427.365 197.047 427.245 197.17C427.125 197.292 426.962 197.36 426.792 197.36Z" fill="#3F3D56"/>
</g>
<path id="blackboardGraphBar1" d="M273.144 197.36H254.578C253.73 197.359 252.916 197.016 252.316 196.405C251.716 195.793 251.378 194.965 251.377 194.1V176.496C251.378 175.632 251.716 174.803 252.316 174.192C252.916 173.581 253.73 173.237 254.578 173.236H273.144C273.993 173.237 274.806 173.581 275.406 174.192C276.007 174.803 276.344 175.632 276.345 176.496V194.1C276.344 194.965 276.007 195.793 275.406 196.405C274.806 197.016 273.993 197.359 273.144 197.36V197.36Z" fill="#7D71FA"/>
<path id="blackboardGraphBar2" d="M314.757 197.36H296.191C295.343 197.359 294.529 197.016 293.929 196.405C293.329 195.793 292.991 194.965 292.99 194.1V154.328C292.991 153.463 293.329 152.635 293.929 152.024C294.529 151.413 295.343 151.069 296.191 151.068H314.757C315.606 151.069 316.419 151.413 317.019 152.024C317.619 152.635 317.957 153.463 317.958 154.328V194.1C317.957 194.965 317.619 195.793 317.019 196.405C316.419 197.016 315.606 197.359 314.757 197.36V197.36Z" fill="#7D71FA"/>
<path id="blackboardGraphBar3" d="M357.01 197.36H338.445C337.596 197.359 336.782 197.016 336.182 196.405C335.582 195.793 335.245 194.965 335.244 194.1V132.159C335.245 131.295 335.582 130.466 336.182 129.855C336.782 129.244 337.596 128.9 338.445 128.899H357.01C357.859 128.9 358.673 129.244 359.273 129.855C359.873 130.466 360.21 131.295 360.211 132.159V194.1C360.21 194.965 359.873 195.793 359.273 196.405C358.673 197.016 357.859 197.359 357.01 197.36V197.36Z" fill="#7D71FA"/>
<path id="blackboardGraphBar4" d="M400.544 197.36H381.978C381.13 197.359 380.316 197.016 379.716 196.405C379.116 195.793 378.778 194.965 378.777 194.1V110.643C378.778 109.779 379.116 108.95 379.716 108.339C380.316 107.728 381.13 107.384 381.978 107.383H400.544C401.393 107.384 402.206 107.728 402.806 108.339C403.406 108.95 403.744 109.779 403.745 110.643V194.1C403.744 194.965 403.406 195.793 402.806 196.405C402.206 197.016 401.393 197.359 400.544 197.36V197.36Z" fill="#7D71FA"/>
<g id="guyHoldingPieChartVect">
<path id="Vector_18" d="M398.234 320.556C398.753 319.756 399.437 319.082 400.24 318.581C401.042 318.08 401.942 317.764 402.878 317.655C403.813 317.547 404.76 317.649 405.652 317.953C406.544 318.258 407.36 318.758 408.042 319.419L428.372 308.733L427.108 320.772L407.996 329.074C406.83 330.167 405.312 330.787 403.727 330.816C402.143 330.845 400.603 330.281 399.4 329.231C398.197 328.181 397.413 326.718 397.199 325.119C396.984 323.52 397.352 321.896 398.234 320.556Z" fill="#FFB8B8"/>
<path id="Vector_19" d="M415.726 325.046C415.265 324.677 414.925 324.174 414.751 323.604L413.134 318.284C412.96 317.707 412.964 317.09 413.146 316.517C413.328 315.943 413.678 315.44 414.15 315.075L430.627 302.4L448.473 268.683C449.22 267.702 450.15 266.881 451.209 266.267C452.268 265.652 453.435 265.256 454.645 265.101C455.854 264.946 457.081 265.035 458.257 265.364C459.432 265.692 460.533 266.252 461.495 267.014C462.458 267.775 463.264 268.722 463.867 269.8C464.471 270.879 464.86 272.068 465.012 273.3C465.164 274.531 465.076 275.781 464.754 276.978C464.432 278.175 463.881 279.296 463.133 280.277L452.981 302.1C449.9 308.724 444.562 313.982 437.96 316.898L418.649 325.428C418.278 325.592 417.877 325.674 417.472 325.67C417.068 325.665 416.668 325.574 416.301 325.402C416.096 325.307 415.903 325.187 415.726 325.046V325.046Z" fill="#3F3D56"/>
<path id="Vector_20" d="M463.582 254.611C472.266 254.611 479.306 247.441 479.306 238.597C479.306 229.753 472.266 222.583 463.582 222.583C454.898 222.583 447.858 229.753 447.858 238.597C447.858 247.441 454.898 254.611 463.582 254.611Z" fill="#FFB8B8"/>
<path id="Vector_21" d="M457.204 448.672L449.355 448.671L445.622 417.839L457.207 417.84L457.204 448.672Z" fill="#FFB8B8"/>
<path id="Vector_22" d="M443.748 446.387H458.885V456.094H434.218C434.218 454.819 434.464 453.557 434.943 452.379C435.422 451.201 436.124 450.131 437.009 449.23C437.894 448.329 438.945 447.614 440.101 447.126C441.258 446.638 442.497 446.387 443.748 446.387Z" fill="#2F2E41"/>
<path id="Vector_23" d="M482.811 448.673L474.963 448.673L471.23 417.84L482.815 417.841L482.811 448.673Z" fill="#FFB8B8"/>
<path id="Vector_24" d="M469.357 446.388H484.493V456.095H459.826C459.826 454.82 460.072 453.558 460.551 452.38C461.03 451.203 461.732 450.133 462.617 449.231C463.502 448.33 464.553 447.615 465.709 447.127C466.866 446.639 468.105 446.388 469.357 446.388V446.388Z" fill="#2F2E41"/>
<path id="Vector_25" d="M483.385 440.849L474.187 440.849C473.554 440.848 472.939 440.635 472.436 440.243C471.933 439.851 471.571 439.301 471.406 438.678L458.167 388.668C458.146 388.59 458.098 388.523 458.031 388.479C457.965 388.436 457.885 388.419 457.806 388.432C457.728 388.445 457.657 388.487 457.608 388.55C457.558 388.613 457.534 388.692 457.538 388.773L460.213 436.202C460.236 436.621 460.171 437.041 460.022 437.432C459.873 437.824 459.643 438.178 459.347 438.471C459.052 438.764 458.698 438.989 458.31 439.131C457.922 439.273 457.508 439.328 457.097 439.293L446.759 438.415C446.097 438.358 445.474 438.069 444.997 437.598C444.519 437.127 444.215 436.503 444.137 435.831L434.719 336.24L438.363 338.466L472.504 332.563L486.241 437.528C486.295 437.942 486.262 438.363 486.143 438.764C486.024 439.164 485.823 439.534 485.553 439.848C485.282 440.163 484.949 440.415 484.575 440.587C484.201 440.76 483.796 440.849 483.385 440.849H483.385Z" fill="#2F2E41"/>
<path id="Vector_26" d="M446.138 346.751C442.371 346.721 438.681 345.663 435.451 343.688C434.954 343.388 434.557 342.942 434.313 342.408C434.069 341.874 433.989 341.277 434.084 340.696C435.285 333.207 441.564 294.79 447.277 273.846C449.604 265.316 454.749 260.721 462.57 260.191C474.009 259.426 484.176 268.541 485.235 280.533C487.103 301.69 479.516 331.749 476.167 343.691C476.038 344.152 475.799 344.574 475.471 344.919C475.144 345.264 474.739 345.522 474.291 345.671C473.843 345.819 473.366 345.853 472.902 345.77C472.438 345.687 472.001 345.49 471.63 345.194L464.804 339.787C464.384 339.46 463.865 339.293 463.337 339.316C462.809 339.338 462.305 339.548 461.913 339.91C456.16 345.136 450.695 346.752 446.138 346.751Z" fill="#3F3D56"/>
<path id="Vector_27" opacity="0.2" d="M468.711 290.886L474.472 315.663L466.149 336.527L471.912 316.315L468.711 290.886Z" fill="black"/>
</g>
<path id="guyHoldingPieChartHeadVect" d="M472.554 251.766C473.953 251.792 475.343 251.536 476.644 251.013C477.216 250.788 477.811 250.603 478.382 250.378C483.428 248.393 486.752 242.92 486.871 237.413C486.991 231.905 484.19 226.559 480.032 223.036C475.873 219.512 470.487 217.703 465.093 217.285C459.283 216.834 452.741 218.334 449.494 223.262C448.63 224.574 448.025 226.165 448.537 227.749C448.69 228.227 448.964 228.655 449.331 228.992C450.781 230.305 452.227 229.318 453.705 229.23C455.736 229.111 457.561 230.785 458.217 232.747C458.872 234.709 458.584 236.869 458.054 238.87C457.65 240.074 457.396 241.325 457.297 242.593C457.254 243.229 457.371 243.866 457.638 244.442C457.904 245.019 458.311 245.517 458.819 245.889C460.089 246.67 461.756 246.218 463.026 245.438C464.296 244.658 465.394 243.573 466.766 242.999C468.138 242.425 469.981 242.552 470.78 243.825C471.034 244.289 471.205 244.794 471.287 245.318C472.003 248.64 471.839 248.444 472.554 251.766V251.766Z" fill="#2F2E41"/>
<g id="pieChardCardVect">
<path id="Vector_28" d="M448.183 426.304L349.722 391.382C348.033 390.781 346.647 389.522 345.868 387.88C345.089 386.239 344.981 384.351 345.567 382.629L371.154 307.805C371.586 306.544 372.492 305.51 373.672 304.929C374.853 304.348 376.212 304.267 377.45 304.705L479.239 340.808C480.498 341.256 481.532 342.194 482.112 343.417C482.693 344.641 482.773 346.048 482.336 347.332L456.778 422.073C456.187 423.794 454.951 425.206 453.339 425.999C451.728 426.792 449.873 426.902 448.183 426.304V426.304Z" fill="#E6E6E6"/>
<path id="Vector_29" d="M358.124 387.082L444.221 417.619C445.86 418.201 447.659 418.095 449.223 417.326C450.786 416.556 451.984 415.186 452.555 413.516L473.216 353.097C473.787 351.427 473.683 349.594 472.928 348.002C472.172 346.411 470.827 345.19 469.187 344.608L383.091 314.071C381.451 313.49 379.652 313.595 378.089 314.365C376.526 315.134 375.327 316.505 374.756 318.174L354.095 378.594C353.813 379.421 353.693 380.296 353.742 381.17C353.792 382.044 354.01 382.9 354.384 383.688C354.758 384.476 355.281 385.182 355.922 385.764C356.564 386.347 357.312 386.794 358.124 387.082Z" fill="white"/>
<path id="Vector_30" d="M379.744 344.632L375.48 343.12C375.249 343.038 375.06 342.865 374.953 342.641C374.846 342.416 374.832 342.158 374.912 341.922L376.397 337.58C376.478 337.344 376.647 337.151 376.867 337.043C377.088 336.934 377.341 336.919 377.573 337.001L381.837 338.513C382.068 338.595 382.258 338.768 382.364 338.992C382.471 339.217 382.485 339.475 382.405 339.711L380.92 344.053C380.839 344.289 380.67 344.482 380.45 344.59C380.229 344.699 379.976 344.714 379.744 344.632V344.632Z" fill="#7D71FA"/>
<path id="Vector_31" d="M375.897 355.883L371.633 354.371C371.402 354.289 371.212 354.116 371.106 353.892C370.999 353.667 370.984 353.409 371.065 353.173L372.55 348.831C372.63 348.596 372.8 348.402 373.02 348.294C373.24 348.185 373.494 348.17 373.725 348.252L377.989 349.764C378.221 349.847 378.41 350.019 378.517 350.243C378.623 350.468 378.638 350.726 378.558 350.962L377.073 355.304C376.992 355.54 376.823 355.733 376.602 355.842C376.382 355.95 376.128 355.965 375.897 355.883V355.883Z" fill="#3F3D56"/>
<path id="Vector_32" d="M372.05 367.135L367.786 365.622C367.555 365.54 367.365 365.368 367.258 365.143C367.152 364.919 367.137 364.66 367.217 364.425L368.702 360.082C368.783 359.847 368.952 359.654 369.173 359.545C369.393 359.436 369.647 359.421 369.878 359.503L374.142 361.015C374.373 361.098 374.563 361.27 374.669 361.495C374.776 361.719 374.791 361.978 374.71 362.213L373.226 366.556C373.145 366.791 372.976 366.984 372.755 367.093C372.535 367.201 372.281 367.216 372.05 367.135V367.135Z" fill="#CCCCCC"/>
<path id="Vector_33" d="M408.396 352.36L387.852 345.073C387.737 345.033 387.631 344.97 387.54 344.888C387.449 344.805 387.375 344.706 387.322 344.595C387.269 344.483 387.238 344.362 387.231 344.239C387.224 344.115 387.241 343.992 387.281 343.875C387.321 343.758 387.383 343.65 387.464 343.558C387.545 343.466 387.643 343.39 387.752 343.337C387.862 343.283 387.981 343.252 388.102 343.245C388.223 343.238 388.345 343.256 388.459 343.297L409.004 350.583C409.119 350.624 409.224 350.687 409.315 350.769C409.406 350.851 409.48 350.951 409.533 351.062C409.586 351.173 409.617 351.294 409.624 351.418C409.631 351.541 409.614 351.665 409.574 351.782C409.534 351.899 409.472 352.006 409.391 352.099C409.311 352.191 409.213 352.266 409.103 352.32C408.994 352.374 408.875 352.405 408.754 352.412C408.632 352.418 408.511 352.401 408.396 352.36V352.36Z" fill="#CCCCCC"/>
<path id="Vector_34" d="M404.549 363.611L384.004 356.324C383.773 356.242 383.583 356.07 383.477 355.845C383.37 355.621 383.355 355.362 383.436 355.127C383.517 354.891 383.686 354.698 383.906 354.589C384.127 354.481 384.381 354.466 384.612 354.548L405.156 361.835C405.271 361.875 405.377 361.938 405.468 362.02C405.559 362.102 405.633 362.202 405.686 362.313C405.738 362.424 405.769 362.545 405.776 362.669C405.784 362.792 405.767 362.916 405.727 363.033C405.687 363.15 405.624 363.257 405.544 363.35C405.463 363.442 405.365 363.517 405.256 363.571C405.146 363.624 405.027 363.656 404.906 363.662C404.785 363.669 404.663 363.652 404.549 363.611V363.611Z" fill="#CCCCCC"/>
<path id="Vector_35" d="M400.701 374.862L380.157 367.576C379.926 367.493 379.736 367.321 379.629 367.097C379.523 366.872 379.508 366.613 379.589 366.378C379.669 366.142 379.838 365.949 380.059 365.84C380.279 365.732 380.533 365.717 380.765 365.799L401.309 373.086C401.54 373.168 401.73 373.34 401.837 373.565C401.943 373.789 401.958 374.048 401.877 374.283C401.797 374.519 401.628 374.712 401.407 374.821C401.187 374.929 400.933 374.944 400.701 374.862V374.862Z" fill="#CCCCCC"/>
<path id="Vector_36" d="M455.374 380.958C455.523 380.593 455.664 380.221 455.794 379.842C457.482 374.904 457.176 369.485 454.941 364.777C452.707 360.069 448.727 356.458 443.879 354.739L437.126 374.486L455.374 380.958Z" fill="#7D71FA"/>
<path id="Vector_37" d="M435.162 375.687L441.915 355.94C438.346 354.674 434.492 354.5 430.827 355.438C427.162 356.376 423.847 358.387 421.291 361.221C418.735 364.055 417.048 367.589 416.441 371.388C415.833 375.186 416.33 379.083 417.871 382.597C419.411 386.111 421.928 389.089 425.111 391.164C428.293 393.239 432.003 394.32 435.781 394.273C439.56 394.227 443.243 393.055 446.375 390.902C449.508 388.75 451.953 385.711 453.41 382.16L435.162 375.687Z" fill="#3F3D56"/>
</g>
<g id="guyHoldingPieChartLeftArmVect">
<path id="Vector_38" d="M459.337 347.36C459.261 346.404 459.391 345.444 459.719 344.545C460.046 343.647 460.563 342.832 461.234 342.159C461.904 341.486 462.711 340.971 463.597 340.65C464.484 340.329 465.429 340.21 466.366 340.301L475.888 319.116L482.188 329.383L472.18 347.927C471.925 349.52 471.106 350.962 469.877 351.981C468.648 352.999 467.094 353.523 465.511 353.453C463.928 353.383 462.425 352.724 461.287 351.601C460.15 350.478 459.456 348.969 459.337 347.36V347.36Z" fill="#FFB8B8"/>
<path id="Vector_39" d="M475.822 339.899C475.235 339.899 474.663 339.717 474.181 339.377L469.685 336.207C469.199 335.863 468.828 335.375 468.623 334.809C468.419 334.244 468.389 333.627 468.54 333.044L473.825 312.714L467.436 274.967C467.429 273.725 467.662 272.494 468.122 271.343C468.583 270.193 469.261 269.147 470.119 268.263C470.976 267.38 471.997 266.678 473.121 266.197C474.246 265.715 475.452 265.465 476.672 265.459C477.891 265.453 479.1 265.692 480.229 266.162C481.358 266.632 482.385 267.324 483.251 268.199C484.117 269.073 484.806 270.113 485.277 271.259C485.748 272.405 485.993 273.634 485.997 274.876L491.232 298.429C492.822 305.577 491.808 313.07 488.38 319.514L478.354 338.363C478.161 338.725 477.895 339.042 477.574 339.293C477.253 339.544 476.883 339.723 476.49 339.819C476.271 339.872 476.047 339.899 475.822 339.899V339.899Z" fill="#3F3D56"/>
</g>
<g id="guyOnBoardBody">
<path id="Vector_40" d="M289.035 318.195C288.288 318.193 287.571 317.896 287.035 317.366C286.5 316.835 286.187 316.114 286.164 315.353C285.911 307.352 285.476 279.667 290.532 259.342C291.912 253.79 295.009 248.837 299.366 245.216C303.724 241.595 309.109 239.498 314.727 239.235V239.235C320.256 238.927 325.74 240.401 330.401 243.447C335.062 246.492 338.663 250.955 340.692 256.202C349.191 278.177 357.221 305.264 347.21 309.512C334.089 315.079 299.5 317.561 289.212 318.189C289.153 318.193 289.094 318.195 289.035 318.195Z" fill="#3F3D56"/>
<path id="guyOnBoards" d="M326.185 440.129H311.62C311.239 440.129 310.862 440.052 310.51 439.902C310.158 439.752 309.839 439.533 309.571 439.257C309.303 438.98 309.092 438.653 308.949 438.293C308.806 437.933 308.735 437.547 308.74 437.159L309.586 366.721C309.589 366.471 309.498 366.229 309.331 366.046C309.165 365.862 308.935 365.75 308.69 365.733C308.445 365.717 308.203 365.796 308.014 365.956C307.824 366.115 307.702 366.343 307.673 366.591L299.196 437.549C299.11 438.261 298.772 438.915 298.245 439.39C297.719 439.866 297.04 440.128 296.336 440.129H281.631C281.234 440.129 280.841 440.045 280.477 439.883C280.113 439.721 279.786 439.484 279.516 439.187C279.246 438.89 279.04 438.539 278.909 438.157C278.779 437.775 278.728 437.369 278.759 436.966L288.469 310.427L288.733 310.398L335.23 305.283L329.063 437.334C329.029 438.088 328.71 438.799 328.174 439.319C327.638 439.84 326.926 440.13 326.185 440.129V440.129Z" fill="#2F2E41"/>
<path id="Vector_41" d="M314.045 446.783L321.894 446.782L325.627 415.951H314.044L314.045 446.783Z" fill="#A0616A"/>
<path id="Vector_42" d="M312.043 444.173L327.5 444.173H327.5C328.794 444.173 330.075 444.432 331.27 444.936C332.465 445.44 333.551 446.179 334.466 447.111C335.38 448.042 336.106 449.148 336.601 450.365C337.096 451.583 337.351 452.887 337.351 454.205V454.531L312.043 454.532L312.043 444.173Z" fill="#2F2E41"/>
<path id="Vector_43" d="M282.675 446.783L290.524 446.782L294.258 415.951H282.674L282.675 446.783Z" fill="#A0616A"/>
<path id="Vector_44" d="M280.673 444.173L296.13 444.173H296.131C297.424 444.173 298.705 444.432 299.9 444.936C301.095 445.44 302.181 446.179 303.096 447.111C304.011 448.042 304.736 449.148 305.231 450.365C305.726 451.583 305.981 452.887 305.981 454.205V454.531L280.674 454.532L280.673 444.173Z" fill="#2F2E41"/>
</g>
<g id="guyOnBoardRightArm">
<path id="Vector_45" d="M349.132 201.128C349.379 201.386 349.645 201.625 349.929 201.84L348.279 234.132L341.413 237.712L345.364 248.971L358.123 243.836C359.153 243.421 360.024 242.677 360.604 241.715C361.184 240.754 361.443 239.626 361.34 238.502L357.998 201.873C359.091 201.042 359.911 199.891 360.347 198.574C360.783 197.257 360.815 195.836 360.439 194.5C360.062 193.164 359.296 191.976 358.24 191.095C357.185 190.214 355.892 189.68 354.531 189.566C353.171 189.452 351.809 189.762 350.627 190.455C349.444 191.148 348.496 192.192 347.91 193.447C347.324 194.702 347.127 196.109 347.345 197.481C347.563 198.853 348.186 200.125 349.132 201.128V201.128Z" fill="#A0616A"/>
<path id="Vector_46" d="M348.409 235.334L353.239 249.312C353.376 249.71 353.428 250.133 353.39 250.553C353.352 250.973 353.226 251.38 353.02 251.746C352.815 252.111 352.534 252.428 352.197 252.673C351.86 252.918 351.475 253.087 351.069 253.167L336.828 255.975C334.825 256.68 332.631 256.548 330.724 255.607C328.818 254.666 327.356 252.993 326.659 250.956C325.962 248.919 326.086 246.684 327.005 244.74C327.924 242.796 329.562 241.302 331.56 240.587L344.347 233.713C344.714 233.516 345.117 233.402 345.53 233.378C345.944 233.355 346.357 233.422 346.743 233.576C347.128 233.73 347.476 233.967 347.764 234.27C348.052 234.573 348.272 234.936 348.409 235.334V235.334Z" fill="#3F3D56"/>
</g>
<g id="guyOnBoardLeftArm">
<path id="Vector_47" d="M281.023 201.128C280.776 201.386 280.509 201.625 280.225 201.84L281.876 234.132L288.741 237.712L284.791 248.971L272.032 243.836C271.001 243.421 270.13 242.677 269.55 241.715C268.97 240.754 268.712 239.626 268.814 238.502L272.157 201.873C271.063 201.042 270.244 199.891 269.808 198.574C269.372 197.257 269.34 195.836 269.716 194.5C270.092 193.164 270.859 191.976 271.914 191.095C272.969 190.214 274.263 189.68 275.623 189.566C276.983 189.452 278.345 189.762 279.528 190.455C280.711 191.148 281.658 192.192 282.244 193.447C282.83 194.702 283.028 196.109 282.809 197.481C282.591 198.853 281.968 200.125 281.023 201.128H281.023Z" fill="#A0616A"/>
<path id="Vector_48" d="M283.412 233.576C283.797 233.422 284.211 233.355 284.624 233.378C285.037 233.402 285.441 233.516 285.807 233.713L298.594 240.587C300.593 241.302 302.231 242.796 303.15 244.74C304.068 246.684 304.193 248.919 303.495 250.956C302.798 252.993 301.336 254.666 299.43 255.607C297.524 256.548 295.329 256.68 293.327 255.975L279.085 253.167C278.679 253.087 278.294 252.918 277.957 252.673C277.621 252.428 277.34 252.111 277.134 251.745C276.928 251.38 276.802 250.973 276.764 250.553C276.726 250.133 276.778 249.71 276.915 249.312L281.745 235.334C281.883 234.936 282.102 234.573 282.39 234.27C282.678 233.966 283.026 233.73 283.412 233.576V233.576Z" fill="#3F3D56"/>
</g>
<g id="guyOnBoardHead">
<path id="guyOnBoardFace" d="M315.612 233.327C324.296 233.327 331.336 226.157 331.336 217.313C331.336 208.469 324.296 201.299 315.612 201.299C306.927 201.299 299.888 208.469 299.888 217.313C299.888 226.157 306.927 233.327 315.612 233.327Z" fill="#A0616A"/>
<path id="guyOnBoardHair" d="M321.719 220.043C321.636 218 322.139 215.977 323.167 214.221C324.195 212.465 325.703 211.051 327.506 210.153C332.286 207.64 335.289 202.28 333.973 197.386C332.289 191.121 323.916 187.057 317.132 189.213C315.296 189.877 313.526 190.715 311.844 191.716L307.412 194.136C305.518 195.101 303.693 196.199 301.948 197.42C299.335 199.382 297.287 202.022 296.017 205.064C294.748 208.107 294.305 211.441 294.733 214.718C295.606 221.088 299.701 226.929 305.307 230.928C307.451 232.56 309.928 233.681 312.554 234.208C315.241 234.659 318.233 234.147 320.197 232.445C323.268 229.785 322.951 225.331 321.958 221.611C321.826 221.098 321.746 220.572 321.719 220.043Z" fill="#2F2E41"/>
</g>
<g id="graphLadyIsHolding">
<path id="Vector_49" d="M279.026 334.309L178.657 376.245C176.933 376.963 175 376.955 173.282 376.223C171.564 375.492 170.201 374.096 169.492 372.342L138.768 296.068C138.251 294.781 138.257 293.339 138.783 292.057C139.31 290.775 140.314 289.758 141.575 289.23L245.337 245.876C246.622 245.341 248.063 245.347 249.343 245.892C250.624 246.438 251.639 247.478 252.168 248.785L282.858 324.976C283.563 326.731 283.555 328.7 282.837 330.45C282.118 332.199 280.748 333.588 279.026 334.309V334.309Z" fill="#E6E6E6"/>
<path id="Vector_50" d="M182.292 366.994L270.058 330.324C271.729 329.626 273.06 328.28 273.757 326.582C274.454 324.885 274.46 322.975 273.774 321.273L248.965 259.682C248.625 258.839 248.126 258.073 247.496 257.427C246.865 256.78 246.116 256.267 245.291 255.915C244.466 255.564 243.581 255.381 242.686 255.378C241.792 255.375 240.905 255.552 240.078 255.897L152.312 292.567C151.485 292.913 150.732 293.421 150.097 294.063C149.463 294.705 148.959 295.468 148.613 296.308C148.268 297.149 148.089 298.05 148.086 298.961C148.083 299.872 148.256 300.775 148.596 301.618L173.406 363.209C173.745 364.051 174.244 364.818 174.875 365.464C175.505 366.111 176.254 366.624 177.079 366.976C177.905 367.327 178.79 367.51 179.684 367.513C180.579 367.516 181.465 367.339 182.292 366.994V366.994Z" fill="white"/>
<path id="Vector_51" d="M248.48 276.479L247.189 277.018L247.278 277.237L248.568 276.698L248.48 276.479Z" fill="#E6E6E6"/>
<path id="Vector_52" d="M244.671 278.326L242.064 279.415L241.976 279.196L244.583 278.107L244.671 278.326ZM239.457 280.505L236.851 281.594L236.763 281.375L239.369 280.286L239.457 280.505ZM234.244 282.683L231.637 283.772L231.549 283.553L234.156 282.464L234.244 282.683ZM229.03 284.861L226.424 285.95L226.336 285.731L228.942 284.642L229.03 284.861ZM223.817 287.039L221.21 288.128L221.122 287.909L223.729 286.82L223.817 287.039ZM218.604 289.218L215.997 290.307L215.909 290.088L218.515 288.999L218.604 289.218ZM213.39 291.396L210.783 292.485L210.695 292.266L213.302 291.177L213.39 291.396ZM208.177 293.574L205.57 294.663L205.482 294.444L208.088 293.355L208.177 293.574ZM202.963 295.752L200.356 296.842L200.268 296.623L202.875 295.533L202.963 295.752ZM197.75 297.931L195.143 299.02L195.055 298.801L197.661 297.712L197.75 297.931ZM192.536 300.109L189.929 301.198L189.841 300.979L192.448 299.89L192.536 300.109ZM187.323 302.287L184.716 303.376L184.628 303.157L187.234 302.068L187.323 302.287ZM182.109 304.466L179.502 305.555L179.414 305.336L182.021 304.246L182.109 304.466ZM176.896 306.644L174.289 307.733L174.201 307.514L176.807 306.425L176.896 306.644ZM171.682 308.822L169.075 309.911L168.987 309.692L171.594 308.603L171.682 308.822ZM166.469 311L163.862 312.089L163.774 311.87L166.38 310.781L166.469 311Z" fill="#E6E6E6"/>
<path id="Vector_53" d="M161.167 312.96L159.877 313.499L159.965 313.718L161.255 313.179L161.167 312.96Z" fill="#E6E6E6"/>
<path id="Vector_54" d="M214.319 314.549L213.028 315.089L213.117 315.308L214.407 314.768L214.319 314.549Z" fill="#E6E6E6"/>
<path id="Vector_55" d="M210.548 316.38L207.98 317.453L207.892 317.234L210.46 316.161L210.548 316.38ZM205.412 318.526L202.844 319.599L202.756 319.38L205.324 318.307L205.412 318.526ZM200.276 320.672L197.708 321.745L197.62 321.526L200.188 320.453L200.276 320.672ZM195.14 322.818L192.572 323.891L192.484 323.672L195.052 322.599L195.14 322.818ZM190.004 324.964L187.436 326.037L187.348 325.818L189.916 324.745L190.004 324.964ZM184.868 327.11L182.3 328.183L182.212 327.964L184.78 326.891L184.868 327.11ZM179.732 329.256L177.164 330.329L177.076 330.11L179.644 329.037L179.732 329.256ZM174.596 331.402L172.028 332.475L171.94 332.256L174.508 331.183L174.596 331.402Z" fill="#E6E6E6"/>
<path id="Vector_56" d="M169.372 333.329L168.082 333.868L168.17 334.087L169.46 333.548L169.372 333.329Z" fill="#E6E6E6"/>
<path id="Vector_57" d="M193.039 334.699L191.749 335.238L191.837 335.457L193.127 334.918L193.039 334.699Z" fill="#E6E6E6"/>
<path id="Vector_58" d="M189.195 336.561L186.553 337.665L186.465 337.446L189.107 336.342L189.195 336.561ZM183.911 338.769L181.269 339.873L181.18 339.654L183.822 338.55L183.911 338.769ZM178.626 340.977L175.984 342.081L175.896 341.862L178.538 340.758L178.626 340.977Z" fill="#E6E6E6"/>
<path id="Vector_59" d="M173.254 342.966L171.964 343.505L172.052 343.724L173.342 343.185L173.254 342.966Z" fill="#E6E6E6"/>
<path id="Vector_60" d="M199.664 351.145L198.373 351.684L198.462 351.903L199.752 351.364L199.664 351.145Z" fill="#E6E6E6"/>
<path id="Vector_61" d="M195.82 353.007L193.177 354.111L193.089 353.892L195.731 352.788L195.82 353.007ZM190.535 355.215L187.893 356.319L187.805 356.1L190.447 354.996L190.535 355.215ZM185.251 357.423L182.609 358.527L182.521 358.308L185.163 357.204L185.251 357.423Z" fill="#E6E6E6"/>
<path id="Vector_62" d="M179.879 359.412L178.588 359.951L178.676 360.17L179.967 359.631L179.879 359.412Z" fill="#E6E6E6"/>
<path id="Vector_63" d="M186.019 357.298L260.395 326.223C262.195 325.469 263.627 324.018 264.378 322.189C265.129 320.36 265.137 318.302 264.4 316.467L249.373 279.162L249.228 279.228L230.976 323.673L217.439 317.91C217.19 317.802 216.919 317.756 216.648 317.773C216.378 317.79 216.115 317.871 215.88 318.009C215.528 318.225 215.255 318.553 215.104 318.943L205.539 342.234L195.641 338.02C195.428 337.929 195.199 337.882 194.967 337.881C194.736 337.88 194.506 337.926 194.292 338.015C194.078 338.105 193.883 338.237 193.719 338.403C193.555 338.569 193.424 338.766 193.335 338.984C193.272 339.142 187.169 354.391 186.019 357.298Z" fill="#7D71FA"/>
<path id="Vector_64" d="M185.79 357.65L185.576 357.558L193.229 338.92C193.432 338.428 193.818 338.038 194.302 337.835C194.787 337.633 195.331 337.634 195.814 337.84L205.516 341.972L215.027 318.809C215.23 318.317 215.616 317.927 216.1 317.724C216.585 317.522 217.129 317.524 217.612 317.729L230.953 323.411L249.299 278.733L249.513 278.824L231.078 323.721L217.522 317.947C217.311 317.857 217.085 317.811 216.856 317.81C216.627 317.809 216.4 317.854 216.188 317.943C215.976 318.031 215.784 318.161 215.621 318.326C215.459 318.49 215.33 318.685 215.241 318.9L205.641 342.281L195.724 338.058C195.298 337.877 194.818 337.875 194.391 338.054C193.963 338.233 193.622 338.577 193.443 339.011L185.79 357.65Z" fill="#3F3D56"/>
<path id="Vector_65" d="M193.083 336.466C193.982 336.466 194.71 335.724 194.71 334.809C194.71 333.894 193.982 333.152 193.083 333.152C192.185 333.152 191.456 333.894 191.456 334.809C191.456 335.724 192.185 336.466 193.083 336.466Z" fill="#3F3D56"/>
<path id="Vector_66" d="M214.363 316.316C215.262 316.316 215.99 315.574 215.99 314.659C215.99 313.744 215.262 313.002 214.363 313.002C213.464 313.002 212.736 313.744 212.736 314.659C212.736 315.574 213.464 316.316 214.363 316.316Z" fill="#3F3D56"/>
<path id="Vector_67" d="M247.497 278.187C248.396 278.187 249.125 277.445 249.125 276.53C249.125 275.615 248.396 274.873 247.497 274.873C246.599 274.873 245.87 275.615 245.87 276.53C245.87 277.445 246.599 278.187 247.497 278.187Z" fill="#3F3D56"/>
</g>
<g id="ladyWithGraphVect">
<path id="Vector_68" d="M156.422 332.928C157.268 332.5 158.011 331.887 158.599 331.134C159.188 330.381 159.607 329.506 159.827 328.571C160.047 327.635 160.064 326.661 159.875 325.719C159.686 324.776 159.296 323.887 158.733 323.114L163.565 274.993H153.122L149.281 321.981C148.069 323.03 147.277 324.495 147.055 326.1C146.833 327.704 147.197 329.335 148.077 330.685C148.957 332.034 150.293 333.008 151.831 333.421C153.369 333.835 155.002 333.659 156.422 332.928Z" fill="#FFB8B8"/>
<path id="Vector_69" d="M166.011 248.436C174.172 248.436 180.787 241.698 180.787 233.387C180.787 225.076 174.172 218.339 166.011 218.339C157.85 218.339 151.235 225.076 151.235 233.387C151.235 241.698 157.85 248.436 166.011 248.436Z" fill="#FFB8B8"/>
<path id="Vector_70" d="M168.793 303.017C168.201 303.017 167.626 302.819 167.156 302.454C166.685 302.089 166.345 301.577 166.188 300.996C165.005 296.615 161.925 289.209 157.034 278.982C155.931 276.67 155.32 274.147 155.241 271.577C155.163 269.008 155.618 266.451 156.578 264.073C157.539 261.696 158.981 259.552 160.812 257.783C162.643 256.013 164.82 254.658 167.202 253.806C169.458 252.994 171.852 252.652 174.241 252.799C176.63 252.946 178.965 253.58 181.109 254.663C183.253 255.745 185.163 257.255 186.724 259.102C188.285 260.949 189.467 263.097 190.199 265.417C193.989 277.52 193.806 290.485 193.552 295.497C193.52 296.1 193.295 296.677 192.911 297.137C192.527 297.598 192.005 297.918 191.426 298.048L169.373 302.953C169.183 302.996 168.988 303.017 168.793 303.017Z" fill="#FF6584"/>
<path id="Vector_71" d="M190.148 445.915H197.523L201.032 416.942L190.147 416.942L190.148 445.915Z" fill="#FFB8B8"/>
<path id="Vector_72" d="M211.748 452.889L188.568 452.89L188.567 443.769L202.791 443.769C203.968 443.769 205.132 444.004 206.219 444.463C207.305 444.921 208.293 445.593 209.124 446.44C209.956 447.287 210.616 448.292 211.066 449.399C211.516 450.506 211.748 451.692 211.748 452.889Z" fill="#2F2E41"/>
<path id="Vector_73" d="M116.397 436.181L122.86 439.799L139.641 416.132L130.103 410.791L116.397 436.181Z" fill="#FFB8B8"/>
<path id="Vector_74" d="M132.026 452.89L111.713 441.517L116.028 433.524L128.492 440.503C130.574 441.669 132.115 443.629 132.778 445.952C133.44 448.274 133.17 450.77 132.026 452.89V452.89V452.89Z" fill="#2F2E41"/>
<path id="Vector_75" d="M189.803 429.834C189.146 429.833 188.512 429.589 188.018 429.147C187.525 428.705 187.206 428.095 187.121 427.431L177.897 355.042C177.857 354.722 177.718 354.423 177.5 354.188C177.283 353.954 176.998 353.795 176.686 353.734C176.375 353.674 176.053 353.716 175.766 353.853C175.479 353.991 175.242 354.217 175.089 354.5L136.648 425.53C136.33 426.11 135.819 426.555 135.207 426.783C134.596 427.012 133.923 427.01 133.313 426.776L124.934 423.525C124.597 423.394 124.289 423.196 124.028 422.943C123.767 422.689 123.559 422.385 123.415 422.048C123.271 421.711 123.195 421.348 123.191 420.981C123.187 420.614 123.254 420.249 123.39 419.909L150.02 353.286C150.087 353.117 150.133 352.94 150.156 352.759C153.762 324.327 162.939 309.869 165.666 306.115C165.865 305.839 165.996 305.519 166.048 305.18C166.1 304.842 166.071 304.496 165.964 304.171L165.589 303.026C165.44 302.572 165.409 302.085 165.5 301.615C165.592 301.145 165.802 300.707 166.11 300.344C175.935 288.947 193.06 295.166 193.232 295.23L193.317 295.263L193.371 295.338C212.573 322.157 205.473 409.265 203.855 426.454C203.795 427.1 203.512 427.704 203.057 428.158C202.602 428.612 202.003 428.887 201.368 428.936L190.014 429.826C189.943 429.831 189.873 429.834 189.803 429.834Z" fill="#2F2E41"/>
<path id="Vector_76" d="M223.454 250.868C223.38 251.198 223.332 251.534 223.31 251.873L197.467 267.056L191.185 263.374L184.489 272.302L194.987 279.922C195.835 280.538 196.856 280.857 197.898 280.831C198.939 280.805 199.944 280.436 200.761 279.779L227.41 258.368C228.613 258.821 229.922 258.891 231.165 258.568C232.407 258.245 233.524 257.544 234.366 256.559C235.208 255.574 235.735 254.351 235.878 253.053C236.021 251.755 235.772 250.443 235.165 249.293C234.559 248.142 233.622 247.207 232.481 246.612C231.339 246.017 230.047 245.789 228.776 245.96C227.504 246.131 226.314 246.692 225.363 247.569C224.413 248.446 223.747 249.596 223.454 250.868V250.868Z" fill="#FFB8B8"/>
<path id="Vector_77" d="M196.603 267.776L188.251 278.8C188.013 279.114 187.712 279.372 187.367 279.556C187.023 279.741 186.644 279.847 186.255 279.869C185.867 279.891 185.478 279.827 185.116 279.682C184.754 279.537 184.427 279.314 184.157 279.029L174.702 269.029C173.133 267.781 172.114 265.951 171.868 263.94C171.622 261.928 172.169 259.899 173.389 258.298C174.61 256.696 176.404 255.653 178.378 255.397C180.353 255.141 182.347 255.693 183.922 256.932L195.782 263.685C196.121 263.879 196.416 264.144 196.645 264.464C196.875 264.784 197.034 265.151 197.112 265.539C197.19 265.927 197.185 266.328 197.097 266.714C197.009 267.1 196.841 267.462 196.603 267.776V267.776Z" fill="#FF6584"/>
<path id="Vector_78" d="M164.23 286.93L150.775 284.455C150.392 284.385 150.029 284.231 149.709 284.005C149.39 283.779 149.122 283.485 148.925 283.144C148.727 282.803 148.604 282.422 148.563 282.028C148.523 281.634 148.567 281.235 148.691 280.86L153.053 267.707C153.418 265.714 154.543 263.95 156.183 262.801C157.824 261.652 159.844 261.213 161.802 261.579C163.76 261.945 165.495 263.087 166.627 264.754C167.76 266.421 168.197 268.478 167.842 270.473L167.417 284.304C167.405 284.7 167.309 285.088 167.136 285.443C166.962 285.798 166.716 286.111 166.414 286.36C166.111 286.609 165.76 286.789 165.383 286.887C165.006 286.986 164.613 287 164.23 286.93H164.23Z" fill="#FF6584"/>
<path id="Vector_79" d="M168.35 229.926C172.147 232.573 177.134 235.294 181.013 232.475C182.226 231.534 183.107 230.218 183.525 228.725C183.943 227.231 183.874 225.639 183.329 224.189C181.472 218.779 176.369 216.398 171.489 214.573C165.146 212.2 158.239 210.312 151.69 212.011C145.142 213.711 139.354 220.168 140.536 226.944C141.487 232.394 146.534 236.928 145.818 242.415C145.096 247.936 138.999 250.843 133.616 251.83C128.233 252.817 122.21 253.134 118.341 257.072C113.406 262.095 114.639 271.074 119.282 276.377C123.926 281.681 130.933 284.085 137.723 285.719C146.72 287.885 156.451 289.023 164.995 285.429C173.54 281.835 180.189 272.162 177.714 263.09C176.668 259.259 174.205 256.02 171.825 252.868C169.445 249.715 167.034 246.419 166.126 242.551C165.37 239.328 165.93 235.585 168.029 233.167C168.41 232.744 168.651 232.209 168.715 231.638C168.779 231.067 168.664 230.49 168.386 229.99L168.35 229.926Z" fill="#2F2E41"/>
</g>
</g>
<defs>
<clipPath id="clip0">
<rect width="637" height="454.895" fill="white"/>
</clipPath>
</defs>
</svg>
